<svg id="Layer_1" width="126" height="126" xmlns="http://www.w3.org/2000/svg" viewBox="0 0 85 85"><style>.st0{fill:#00A5C9;}</style><circle class="st0" cx="28" cy="42.4" r="2.4"/><circle class="st0" cx="35.7" cy="42.4" r="2.4"/><circle class="st0" cx="43.4" cy="42.4" r="2.4"/><circle class="st0" cx="51" cy="42.4" r="2.4"/><path class="st0" d="M64.7 48.1c.4-1.6.6-3.4.6-5.1.2-13.7-10.7-25.1-24.5-25.4h-.5c-13.5 0-24.7 11-24.9 24.5-.2 13.8 10.8 25.2 24.6 25.4h.5c3.7 0 7.2-.8 10.4-2.3 1.9 1.5 4.2 2.4 6.8 2.4 6.1 0 11-4.9 11-11-.1-3.4-1.6-6.4-4-8.5zM40 65.7c-12.8-.2-23-10.8-22.7-23.6.2-12.5 10.6-22.7 23.1-22.7h.4c12.8.3 23 10.8 22.8 23.6 0 1.4-.2 2.7-.4 4-1.6-.9-3.5-1.5-5.5-1.5-6.1 0-11 4.9-11 11 0 2.8 1.1 5.4 2.8 7.3-2.8 1.2-5.8 1.9-9 1.9H40zm17.6.2c-5.1 0-9.3-4.2-9.3-9.3 0-5.1 4.2-9.3 9.3-9.3s9.3 4.2 9.3 9.3c.1 5.1-4.1 9.3-9.3 9.3z"/><g><path class="st0" d="M56.8 60.4c-.2 0-.4-.1-.6-.2l-4.5-4.5c-.3-.3-.3-.9 0-1.2.3-.3.9-.3 1.2 0l3.9 3.9 5.6-5.4c.3-.3.9-.3 1.2 0 .3.3.3.9 0 1.2l-6.2 6c-.2.1-.4.2-.6.2z"/></g></svg>