<svg id="Layer_1" xmlns="http://www.w3.org/2000/svg" width="126" height="53" viewBox="0 0 343 144.3"><style>.st0{fill:#00A6C9;}</style><path class="st0" d="M119.7 144.3h-75c-2.6 0-5-1.4-6.3-3.6L1 75.8c-1.3-2.2-1.3-5 0-7.2l37.5-65C39.7 1.4 42.1 0 44.7 0h75c2.6 0 5 1.4 6.3 3.6l31.3 54.1c.7 1.2.3 2.7-.9 3.4-1.2.7-2.7.3-3.4-.9L121.6 6.1c-.4-.7-1.1-1.1-1.9-1.1h-75c-.8 0-1.5.4-1.9 1.1l-37.5 65c-.4.7-.4 1.5 0 2.2l37.5 64.9c.4.7 1.1 1.1 1.9 1.1h75c.8 0 1.5-.4 1.9-1.1l31.3-54.1c.7-1.2 2.2-1.6 3.4-.9 1.2.7 1.6 2.2.9 3.4L126 140.7c-1.3 2.3-3.7 3.6-6.3 3.6zM298.3 144.3h-75c-2.6 0-5-1.4-6.3-3.6l-31.3-54.1c-.7-1.2-.3-2.7.9-3.4 1.2-.7 2.7-.3 3.4.9l31.3 54.1c.4.7 1.1 1.1 1.9 1.1h75c.8 0 1.5-.4 1.9-1.1l37.5-64.9c.4-.7.4-1.5 0-2.2l-37.4-65c-.4-.7-1.1-1.1-1.9-1.1h-75c-.8 0-1.5.4-1.9 1.1l-31.3 54.1c-.7 1.2-2.2 1.6-3.4.9-1.2-.7-1.6-2.2-.9-3.4l31.3-54.1c1.3-2.2 3.7-3.6 6.3-3.6h75c2.6 0 5 1.4 6.3 3.6l37.5 64.9c1.3 2.2 1.3 5 0 7.2l-37.5 64.9c-1.4 2.4-3.8 3.7-6.4 3.7z"/><g><path class="st0" d="M223.3 74.7H119.7c-1.4 0-2.5-1.1-2.5-2.5s1.1-2.5 2.5-2.5h103.6c1.4 0 2.5 1.1 2.5 2.5s-1.1 2.5-2.5 2.5z"/></g></svg>