<svg id="Layer_1" xmlns="http://www.w3.org/2000/svg" width="126" height="150" viewBox="0 0 38.2 45.5"><style>.st0{fill:#00A5C9;}</style><path class="st0" d="M19.6 45.5c-3 0-5.4-.3-7.6-.8-.4-.1-.9-.3-1.3-.4-.4-.2-.7-.3-.9-.3-.6-.2-1.1-.2-1.7-.2H.8c-.4 0-.8-.4-.8-.8V25c0-.4.3-.8.8-.8h8.1c.5 0 .5 0 .7-.7.1-.4.3-.9.5-1.5.8-2 2-3.9 3-5.8l.6-1.1C16.1 11 18 6.6 19.4 1.7c.2-.7.7-1.3 1.4-1.5.3-.1.6-.2.9-.2.4 0 .9.1 1.2.4 2 1.2 2.5 4.3 2.5 5.6-.1 1.8-.7 3.4-1.3 4.9-.4 1.1-.9 2.3-1 3.4-.2 1.2 0 2 .5 2.6 1 1.1 3.4 1.3 5.4 1.3h4.2c1.6.1 3.6.7 4.5 2.1.6.9.7 2 .3 3.1-.4 1.2-1.3 1.9-2.1 2.4 1.8 1.4 2.3 2.9 1.8 4.5-.4 1.1-1.1 1.8-2.3 2.3.6.5 1 1 1.3 1.6.4 1.1.4 2.1 0 2.9-.4.9-1.3 1.5-2.6 1.8.6 1.1 1 1.9 1 2.6.1 3.5-3.7 3.6-5.3 3.7h-.6l-2.6.2c-2.4-.1-4.7.1-7 .1zM8.1 42.1c.8 0 1.4.1 2.1.3.3.1.6.2 1 .3.5.2.8.3 1.2.4 2.1.5 4.4.8 7.2.8 2.3 0 4.7-.2 6.9-.3 0 0 1.8-.1 2.6-.2h.6c2.4-.1 3.7-.4 3.7-1.9 0-.3-.3-.9-.9-1.7-.3-.4-.4-1-.2-1.5s.6-.9 1.1-1c.9-.2 1.5-.6 1.7-1 .2-.4.2-.9-.1-1.5-.1-.4-.4-.7-.9-1-.5-.3-.7-.9-.6-1.5.1-.6.5-1.1 1-1.3.8-.3 1.3-.7 1.5-1.3.4-1.2-.5-2-1.4-2.6-.5-.3-.7-.8-.7-1.4 0-.5.3-1.1.8-1.3.6-.3 1.3-.9 1.6-1.6.2-.6.2-1.2-.1-1.6-.5-.8-2-1.3-3.2-1.3h-4.1c-2.5 0-5.2-.2-6.7-1.8-.8-1-1.1-2.3-.9-4 .2-1.3.7-2.6 1.1-3.7.5-1.4 1.1-2.8 1.2-4.3 0-1.1-.5-3.3-1.7-4.1-.1-.1-.2-.1-.3-.1h-.2c-.2.1-.3.2-.4.4-1.5 5.1-3.4 9.6-5.9 13.9l-.6 1c-1.1 1.8-2.2 3.7-3 5.6-.2.5-.3.9-.4 1.3-.3 1.2-.6 1.9-2.3 2h-7l-.1 16h6.4z"/></svg>