<svg id="Layer_1" xmlns="http://www.w3.org/2000/svg" width="126" height="124" viewBox="0 0 35.7 38"><style>.st0{fill:#050270;}</style><path class="st0" d="M5.5 15.4c0-5.3 2.9-10.5 8.8-10.5s8.9 5 8.9 10.5c0 5.4-2.7 10.5-8.9 10.5s-8.8-5.3-8.8-10.5zm-5.5 0c0 9.1 5.2 15.4 14.3 15.4s14.4-6.3 14.4-15.4C28.7 6.6 23.4 0 14.3 0 5.3 0 0 6.5 0 15.4zM27.4 37.9v-2.1c1.1-1 5.3-4.6 5.3-6.8 0-1.2-1-1.7-2-1.7-1.1 0-2.1.5-2.9 1l-.2-2.1c1.2-.5 2.5-.9 3.8-.9 2.3 0 3.8 1.2 3.8 3.7 0 2.6-2.7 5-4.6 7h5.1v2h-8.3v-.1z"/></svg>