<svg id="Layer_1" xmlns="http://www.w3.org/2000/svg" width="126" height="150" viewBox="0 0 207.8 247.3"><style>.st0{fill:#00A6C9;}</style><path class="st0" d="M157.2 139.7l-8.9 8.9-7.3-7.3c11.4-12.7 14.4-30.2 9.1-45.5-2.2-6.2-5.6-12.1-10.6-17.1-8.6-8.6-20.1-13.3-32.2-13.3-.9 0-1.7.2-2.5.2l-.8.1c-10.1.7-19.5 4.7-27 11.5l-7.3-7.3 8.9-8.9c.9-.9.9-2.4 0-3.4-.9-.9-2.5-.9-3.4 0L64.5 68.2c-23.6 23.6-23.6 62 0 85.5 11.3 11.3 26.1 17.1 40.9 17.6-.9 4.5-4 14.3-14.4 14.3h-3c-1.3 0-2.4 1.1-2.4 2.4 0 1.3 1.1 2.4 2.4 2.4h38.5c1.3 0 2.4-1.1 2.4-2.4 0-1.3-1.1-2.4-2.4-2.4h-23.2c4.3-4.1 6.3-9.9 6.9-14.4 14.5-.7 28.7-6.5 39.7-17.5l10.6-10.6c.9-.9.9-2.4 0-3.4-.8-.9-2.3-.9-3.3 0m-21.1.1c-7.7 7.7-17.9 12-28.8 12-10.9 0-21.1-4.2-28.8-12-4.8-4.8-8-10.6-9.9-16.7l4.2-1.3 5.6 4c.4.3.9.5 1.4.5.7 0 1.4-.3 1.8-.9l8.2-9.7c.6-.7.8-1.7.4-2.6-.4-.8-1.2-1.4-2.2-1.4h-5.9l-3.1-2.1-.2-4 3.9-2.7c.6-.4 1-1.2 1-2V86.8c0-1.3-1.1-2.4-2.4-2.4h-4.9c.7-.8 1.2-1.6 1.9-2.3 6.2-6.2 14-10 22.5-11.3l-2.7 5.9c-.4.9-.2 2 .5 2.7l4.5 4.7.7.5 9.3 4.4c.7.3 1.5.3 2.1 0 0 0 2.3-1.2 3.7-2.1 1.4 0 5.9 1 9.8 2.1l7.2 8.5c.5.5 1.1.8 1.8.8h8c4.8 14.1 1.6 30.3-9.6 41.5M72.9 89.2H79v10.5l-4 2.7c-.7.5-1.1 1.3-1 2.1l.3 6.5c0 .7.4 1.4 1 1.9l4.7 3.2c.4.3.9.4 1.4.4h1.3l-3.4 4.1-4.7-3.4c-.6-.4-1.4-.6-2.1-.4l-5.3 1.6c-1.8-9.9.1-20.3 5.7-29.2m63.2-7.1c3.4 3.4 5.9 7.2 7.8 11.3h-5l-6.9-8.2-1.2-.8c-11.9-3.4-13.3-2.4-14.1-1.9-.7.5-1.8 1.1-2.6 1.5l-7.8-3.7-3.1-3.2 3.2-7 .8-.1c11 .2 21.2 4.4 28.9 12.1m-69.7-8.6l7.1 7.2c-1.3 1.5-2.6 2.9-3.7 4.5l-.1.2c-12.1 17.7-10.4 42.2 5.3 57.9 8.6 8.6 20 13.3 32.2 13.3 11.4 0 22-4.3 30.4-11.8l7.1 7.1c-21.8 20-55.7 19.6-76.9-1.5-21-21.2-21.4-55.1-1.4-76.9"/><path class="st0" d="M117.2 112.7c-.5-.7-1.5-1.1-2.4-.9-.9.2-1.6.9-1.8 1.8-.4 1.6-.9 3.3-1.3 4.7-1.5-1.1-3.8-2.7-7.2-4.9l-8.9-5.4c-.6-.4-1.4-.4-2.1-.2-.7.3-1.2.8-1.4 1.6l-2 7.1-6.6 8.3c-.3.4-.5 1-.5 1.5v8.2c0 1.1.7 2.1 1.8 2.3l12.2 3h18.3l1.3-.4 7.6-5c.7-.4 1.1-1.2 1.1-2V124c0-.5-.2-1-.5-1.4l-7.6-9.9zm3.2 18.4l-5.9 3.9-17 .1-9.9-2.5V127l6.4-8 .4-.8 1.3-4.5 6.1 3.7c3.6 2.3 7.8 5.2 8.3 5.6.3 1 1.4 1.8 2.4 1.8 1.6 0 2.4-.6 3.7-5.4l4.1 5.4v6.3z"/><g><path class="st0" d="M104.425 247.183s-.34 0 0 0c-2.048 0-3.756-.34-5.463-1.356-4.438-1.696-18.777-7.46-35.848-16.956-36.872-20.008-47.456-34.25-52.236-43.407C-2.78 160.03-1.072 120.69 1.66 93.56c2.73-30.86 8.535-56.633 8.535-56.633.683-3.73 4.097-6.443 8.194-6.443 17.41-.34 50.87-4.07 78.865-26.452.683-.34 1.025-1.017 1.707-1.695 1.366-1.357 3.415-2.374 5.122-2.374h.682c2.732 0 5.463 1.356 7.17 3.73v.34c.683 1.017 1.024 1.695 1.707 2.373 12.632 14.243 43.7 24.078 75.452 24.078h.683c3.756 0 7.17 2.713 7.853 6.443 0 .34 5.805 26.113 8.536 56.634 2.39 27.13 4.438 66.47-9.218 91.903-10.243 18.99-34.824 33.912-52.236 43.408-17.07 9.157-31.41 15.26-35.85 16.957-1.023 1.017-2.73 1.356-4.437 1.356zm-.34-4.748c1.023 0 1.706-.34 2.39-.678.34-.34.68-.34.68-.34 4.098-1.694 18.438-7.46 35.167-16.616 17.07-9.155 40.628-23.398 50.187-41.372 12.973-24.417 11.266-62.398 8.876-89.19-2.73-30.52-8.535-55.954-8.535-56.293-.34-1.696-1.706-2.713-3.072-2.713h-.34-.343c-33.117 0-65.892-10.852-79.207-25.774-1.025-1.017-1.366-2.034-2.05-3.052v-.34c-.682-.677-1.364-1.355-2.39-1.355h-.34c-.683 0-1.707.34-2.05 1.018-.68.678-1.364 1.357-2.047 2.035-29.02 23.06-63.843 27.13-81.938 27.47-1.707 0-2.73 1.016-3.073 2.373 0 .34-5.805 25.773-8.536 56.294-2.39 26.45-4.097 64.772 8.877 89.19 9.56 17.633 33.118 31.877 50.188 41.372 17.07 9.156 31.41 15.26 35.507 16.617.342 0 .342.338.683.338-.34.678.34 1.017 1.366 1.017z"/></g></svg>