<svg id="Layer_1" xmlns="http://www.w3.org/2000/svg" width="126" height="126" viewBox="0 0 223.2 223.2"><style>.st0{fill:#00A6C9;} .st1{fill:#FFFFFF;}</style><path class="st0" d="M113 120.9h-5c0-21.6-17.6-39.2-39.2-39.2s-39.2 17.6-39.2 39.2h-5c0-24.4 19.8-44.2 44.2-44.2 24.4 0 44.2 19.8 44.2 44.2zM68.8 74.4c-12.2 0-22.1-9.9-22.1-22.1s9.9-22.1 22.1-22.1c12.2 0 22.1 9.9 22.1 22.1S81 74.4 68.8 74.4zm0-39.1c-9.4 0-17.1 7.7-17.1 17.1s7.7 17.1 17.1 17.1 17.1-7.7 17.1-17.1-7.7-17.1-17.1-17.1z"/><path class="st0" d="M68.8 137.7c-38 0-68.8-30.9-68.8-68.8S30.9 0 68.8 0c38 0 68.8 30.9 68.8 68.8s-30.8 68.9-68.8 68.9zM68.8 5C33.6 5 5 33.6 5 68.8c0 35.2 28.6 63.8 63.8 63.8 35.2 0 63.8-28.6 63.8-63.8C132.7 33.6 104 5 68.8 5z"/><g><circle class="st1" cx="154.4" cy="154.4" r="66.3"/><path class="st0" d="M154.4 223.2c-38 0-68.8-30.9-68.8-68.8s30.9-68.8 68.8-68.8c38 0 68.8 30.9 68.8 68.8s-30.9 68.8-68.8 68.8zm0-132.6c-35.2 0-63.8 28.6-63.8 63.8s28.6 63.8 63.8 63.8 63.8-28.6 63.8-63.8-28.6-63.8-63.8-63.8z"/></g><g><circle class="st1" cx="129" cy="154.4" r="18.3"/><path class="st0" d="M129 175.2c-11.5 0-20.8-9.3-20.8-20.8s9.3-20.8 20.8-20.8 20.8 9.3 20.8 20.8-9.3 20.8-20.8 20.8zm0-36.6c-8.7 0-15.8 7.1-15.8 15.8s7.1 15.8 15.8 15.8 15.8-7.1 15.8-15.8-7.1-15.8-15.8-15.8z"/><path class="st0" d="M196.2 156.9h-49c-1.4 0-2.5-1.1-2.5-2.5s1.1-2.5 2.5-2.5h49c1.4 0 2.5 1.1 2.5 2.5s-1.1 2.5-2.5 2.5z"/><g><path class="st0" d="M196.2 165.3h-17.1c-1.4 0-2.5-1.1-2.5-2.5s1.1-2.5 2.5-2.5h17.1c1.4 0 2.5 1.1 2.5 2.5s-1.1 2.5-2.5 2.5z"/></g></g></svg>