<svg id="Layer_1" xmlns="http://www.w3.org/2000/svg" width="126" height="126" viewBox="-190.3 463.9 206.8 212.5"><style>.st0{fill:#00A6C9;} .st1{fill:#FFFFFF;}</style><path class="st0" d="M-86.9 670.7c-57 0-103.4-46.4-103.4-103.4 0-57 46.4-103.4 103.4-103.4 57 0 103.4 46.4 103.4 103.4 0 57-46.4 103.4-103.4 103.4zm0-201.8c-54.2 0-98.4 44.1-98.4 98.4 0 54.2 44.1 98.4 98.4 98.4 54.2 0 98.4-44.1 98.4-98.4 0-54.3-44.2-98.4-98.4-98.4z"/><circle class="st1" cx="-25.2" cy="643.8" r="30.1"/><path class="st0" d="M-25.2 676.4c-18 0-32.6-14.6-32.6-32.6s14.6-32.6 32.6-32.6 32.6 14.6 32.6 32.6-14.6 32.6-32.6 32.6zm0-60.2c-15.2 0-27.6 12.4-27.6 27.6s12.4 27.6 27.6 27.6S2.4 659 2.4 643.8s-12.4-27.6-27.6-27.6z"/><path class="st0" d="M-27.8 655.2c-.6 0-1.3-.2-1.8-.7l-13.3-13.3c-1-1-1-2.6 0-3.5 1-1 2.6-1 3.5 0l11.6 11.6 16.6-16c1-1 2.6-.9 3.5.1 1 1 .9 2.6-.1 3.5L-26 654.5c-.5.5-1.1.7-1.8.7z"/><g><circle class="st0" cx="-133.8" cy="567.3" r="9.8"/><circle class="st0" cx="-102.5" cy="567.3" r="9.8"/><circle class="st0" cx="-71.3" cy="567.3" r="9.8"/><circle class="st0" cx="-40" cy="567.3" r="9.8"/></g></svg>