<svg id="Layer_1" xmlns="http://www.w3.org/2000/svg" width="126" height="84" viewBox="0 0 56.4 37.4"><style>.st0{fill:#00A5C9;}</style><path class="st0" d="M4.1 37.4c-.3 0-.5-.1-.7-.3-.2-.3-.2-.7 0-1l.1-.1 6.2-5-.3-.2C3.9 27 .6 22.3.1 21.3c-.1-.1-.1-.2 0-.3 1-1.6 10.3-15.3 28.2-15.3 4 0 7.8.6 11.3 1.7l.2.1L49.1.1c.1-.1.2-.1.4-.1.3 0 .5.1.7.3.2.3.2.8 0 1.1l-.2.1-8.4 6.6.5.2c3 1.2 5.6 2.9 8 4.9 3.9 3.4 5.9 7.1 6.3 7.8.1.1.1.2 0 .3-.4.7-2.4 4.5-6.3 7.8-4 3.4-11 7.5-21.9 7.5-6 0-11.6-1.5-16.8-4.5l-.3-.2-6.7 5.4c0 .1-.2.1-.3.1zm9-6.3c4.6 2.5 9.7 3.8 15.1 3.8 10.3 0 16.9-3.8 20.7-7 2.7-2.3 4.9-5.6 5.5-6.5.1-.1.1-.3 0-.4-.9-1.3-5.7-8-12.9-11l-.8-.3.3.6c.7 1.3 1.1 2.5 1.4 3.7.9 4.4-.1 8.8-2.9 12.2-2.8 3.4-6.9 5.4-11.3 5.4-1 0-2.1-.1-3.1-.3-2.7-.6-5.3-2-7.4-4.2L12.8 31l.3.1zm1.7-20.7C7.9 13.6 2.6 20.4 2 21.1c.7 1 4.5 5.7 9 8.6l.3.2L38.1 8.7l-.6-.2c-2.9-.8-6-1.2-9.3-1.2-3.4 0-6.7.5-9.8 1.5-1.3 1.6-2.1 3.1-2.5 4.5-.8 2.8-.6 5.7.4 8.3.1.2.1.4 0 .7-.1.2-.3.4-.5.5-.1 0-.2.1-.3.1-.4 0-.7-.2-.8-.5-.7-1.7-1-3.5-1-5.3 0-2.1.5-4.3 1.4-6.3l.4-.8-.7.4zm4.5 15.7c2.4 2.3 5.6 3.7 9 3.7 7 0 12.8-5.7 12.8-12.8 0-2.3-.6-4.6-1.8-6.6l-.3-.2-4.9 3.8.1.2c.5.9.7 2 .7 3 0 3.7-3 6.7-6.7 6.7-1.6 0-3.1-.6-4.3-1.6l-.2-.2-4.7 3.8.3.2zm6.1-4.7c.8.6 1.8.9 2.8.9 2.7 0 5-2.2 5-5 0-.6-.1-1.2-.3-1.8l-.1-.4-7.6 6 .2.3zm-3.1-4c-.2 0-.4-.1-.6-.3-.1-.2-.2-.4-.2-.6.3-3.2 3-5.7 6.2-5.7.3 0 .6 0 .9.1.2 0 .4.1.5.3.1.2.2.4.2.6-.1.4-.4.7-.8.7-.3 0-.6-.1-.8-.1-2.4 0-4.4 1.8-4.6 4.2 0 .5-.3.8-.8.8z"/></svg>