<svg id="Layer_1" xmlns="http://www.w3.org/2000/svg" width="126" height="110" viewBox="0 0 215 188.8"><style>.st0{fill:#00A6C9;}</style><path class="st0" d="M172.3 188.8c-1.4 0-2.8-.5-3.9-1.5l-35.1-30.2c-.2-.1-.4-.2-.6-.2H5.9c-3.3 0-5.9-2.7-5.9-5.9V4.1C0 1.8 1.8 0 4.1 0H211c2.2 0 4.1 1.8 4.1 4.1V151c0 3.3-2.7 5.9-5.9 5.9h-29.9c-.5 0-.9.4-.9.9v25c0 2.4-1.3 4.4-3.5 5.4-.9.4-1.8.6-2.6.6zM5 5v145.9c0 .5.4.9.9.9h126.8c1.4 0 2.8.5 3.9 1.4l35.1 30.2c.4.3.8.2 1 .1s.6-.3.6-.9v-25c0-3.3 2.7-5.9 5.9-5.9h29.9c.5 0 .9-.4.9-.9V5H5z"/><path class="st0" d="M65.4 95.4c-8.9 0-16.1-7.2-16.1-16.1s7.2-16.1 16.1-16.1 16.1 7.2 16.1 16.1-7.2 16.1-16.1 16.1zm0-27.1c-6.1 0-11.1 5-11.1 11.1s5 11.1 11.1 11.1 11.1-5 11.1-11.1-4.9-11.1-11.1-11.1zM107.5 95.4c-8.9 0-16.1-7.2-16.1-16.1s7.2-16.1 16.1-16.1c8.9 0 16.1 7.2 16.1 16.1s-7.2 16.1-16.1 16.1zm0-27.1c-6.1 0-11.1 5-11.1 11.1s5 11.1 11.1 11.1 11.1-5 11.1-11.1-5-11.1-11.1-11.1zM149.5 95.4c-8.9 0-16.1-7.2-16.1-16.1s7.2-16.1 16.1-16.1c8.9 0 16.1 7.2 16.1 16.1s-7.2 16.1-16.1 16.1zm0-27.1c-6.1 0-11.1 5-11.1 11.1s5 11.1 11.1 11.1 11.1-5 11.1-11.1-4.9-11.1-11.1-11.1z"/></svg>