<svg class="spinner" xmlns="http://www.w3.org/2000/svg" width="126" height="126" viewBox="0 0 100 100" preserveAspectRatio="xMidYMid"><rect class="spinner__el spinner__1" x="46.5" y="40" width="7" height="20" rx="5" ry="5" fill="#ccc" transform="translate(0 -30)"/><rect class="spinner__el spinner__2" x="46.5" y="40" width="7" height="20" rx="5" ry="5" fill="#ccc" transform="rotate(30 105.98 65)"/><rect class="spinner__el spinner__3" x="46.5" y="40" width="7" height="20" rx="5" ry="5" fill="#ccc" transform="rotate(60 75.98 65)"/><rect class="spinner__el spinner__4" x="46.5" y="40" width="7" height="20" rx="5" ry="5" fill="#ccc" transform="rotate(90 65 65)"/><rect class="spinner__el spinner__5" x="46.5" y="40" width="7" height="20" rx="5" ry="5" fill="#ccc" transform="rotate(120 58.66 65)"/><rect class="spinner__el spinner__6" x="46.5" y="40" width="7" height="20" rx="5" ry="5" fill="#ccc" transform="rotate(150 54.02 65)"/><rect class="spinner__el spinner__7" x="46.5" y="40" width="7" height="20" rx="5" ry="5" fill="#ccc" transform="rotate(180 50 65)"/><rect class="spinner__el spinner__8" x="46.5" y="40" width="7" height="20" rx="5" ry="5" fill="#ccc" transform="rotate(-150 45.98 65)"/><rect class="spinner__el spinner__9" x="46.5" y="40" width="7" height="20" rx="5" ry="5" fill="#ccc" transform="rotate(-120 41.34 65)"/><rect class="spinner__el spinner__10" x="46.5" y="40" width="7" height="20" rx="5" ry="5" fill="#ccc" transform="rotate(-90 35 65)"/><rect class="spinner__el spinner__11" x="46.5" y="40" width="7" height="20" rx="5" ry="5" fill="#ccc" transform="rotate(-60 24.02 65)"/><rect class="spinner__el spinner__12" x="46.5" y="40" width="7" height="20" rx="5" ry="5" fill="#ccc" transform="rotate(-30 -5.98 65)"/></svg>