<svg id="Layer_1" xmlns="http://www.w3.org/2000/svg" width="126" height="126" viewBox="0 0 210.7 210.6"><style>.st0{fill:#00A6C9;}</style><path class="st0" d="M135.6 87.138c-.6 0-1.2.2-1.7.5l-43.2 28.7-13.3-13.3c-1.2-1.3-3.1-1.4-4.4-.2-1.3 1.2-1.4 3.1-.2 4.4l.2.2 15.1 15.1c1.1 1.1 2.7 1.2 3.9.4l45.4-30.2c1.5-.9 1.9-2.9.9-4.3-.6-.8-1.6-1.3-2.7-1.3z"/><path class="st0" d="M105.79 38.623c-1.024 0-2.048.678-2.73 1.356-13.657 11.53-31.41 15.26-45.067 15.26-1.366 0-2.73 1.017-3.073 2.374 0 0-3.073 14.243-4.78 31.2-1.707 16.955-2.048 36.963 5.122 49.85 5.12 9.495 17.412 17.295 28.337 23.4 10.24 5.425 18.435 8.817 19.8 9.156.684.34 1.366.678 2.05.678.682 0 1.365-.34 2.048-.678 1.365-.678 9.56-3.73 19.802-9.157 10.925-5.765 23.216-13.564 28.337-23.4 6.828-12.886 6.487-32.894 5.12-49.85-1.706-16.956-4.78-31.2-4.78-31.2-.34-1.356-1.706-2.373-3.07-2.373h-.343c-19.802 0-37.555-6.783-43.7-14.92-.683-1.02-1.708-1.697-3.073-1.697zm0 8.14c8.877 9.155 25.607 14.58 44.384 14.92.683 3.052 2.732 13.565 4.097 28.147 1.367 16.617 1.367 35.947-4.437 46.46-3.756 7.122-15.364 14.922-25.606 20.687-9.56 5.086-17.412 8.14-18.778 8.817-1.708-.678-9.22-3.73-18.778-8.817-10.584-5.765-21.85-13.565-25.606-20.687-5.463-10.173-5.804-29.843-4.44-46.46 1.367-14.582 3.415-25.095 4.098-28.147 19.12-.678 36.19-5.765 45.067-14.92z"/><path class="st0" d="M105.4 210.7C47.3 210.7 0 163.4 0 105.4S47.3 0 105.4 0s105.4 47.3 105.4 105.4-47.4 105.3-105.4 105.3zm0-205.7C50 5 5 50 5 105.4s45 100.4 100.4 100.4 100.4-45 100.4-100.4S160.7 5 105.4 5z"/></svg>