<svg id="Layer_1" xmlns="http://www.w3.org/2000/svg" width="44" height="44" viewBox="0 0 43.8 43.8"><style>.st0{opacity:0.6;} .st1{fill:#FFFFFF;}</style><g class="st0"><path class="st1" d="M36 38.3h-2c0-6.7-5.4-12.1-12.1-12.1-6.7 0-12.1 5.4-12.1 12.1h-2c0-7.8 6.3-14.1 14.1-14.1S36 30.5 36 38.3zM21.9 23.9c-4 0-7.2-3.2-7.2-7.2s3.2-7.2 7.2-7.2 7.2 3.2 7.2 7.2-3.2 7.2-7.2 7.2zm0-12.4c-2.8 0-5.2 2.3-5.2 5.2 0 2.8 2.3 5.2 5.2 5.2 2.8 0 5.2-2.3 5.2-5.2 0-2.8-2.3-5.2-5.2-5.2z"/><g><path class="st1" d="M21.9 43.8C9.8 43.8 0 34 0 21.9 0 9.8 9.8 0 21.9 0s21.9 9.8 21.9 21.9c0 12.1-9.8 21.9-21.9 21.9zm0-41.8C10.9 2 2 10.9 2 21.9c0 11 8.9 19.9 19.9 19.9 11 0 19.9-8.9 19.9-19.9 0-11-8.9-19.9-19.9-19.9z"/></g></g></svg>