<svg id="Layer_1" xmlns="http://www.w3.org/2000/svg" width="25" height="25" viewBox="-285 409.1 24.8 24.8"><style>.st0{fill:#00A6C9;}</style><path class="st0" d="M-272.6 409.1c-6.8 0-12.4 5.6-12.4 12.4 0 6.8 5.6 12.4 12.4 12.4 6.8 0 12.4-5.6 12.4-12.4 0-6.8-5.6-12.4-12.4-12.4m0 23.9c-6.3 0-11.5-5.2-11.5-11.5s5.2-11.5 11.5-11.5c6.4 0 11.5 5.1 11.5 11.5 0 6.3-5.1 11.5-11.5 11.5"/><path class="st0" d="M-269.3 415.3c-.2-.2-.5-.2-.7 0l-6.1 6.1 6.2 6.2c.1.1.2.1.3.1s.2 0 .3-.1c.2-.1.2-.4 0-.6l-5.6-5.5 5.6-5.6c.1-.1.1-.4 0-.6"/></svg>