<svg id="Layer_1" xmlns="http://www.w3.org/2000/svg" width="126" height="150" viewBox="0 0 39.1 46.7"><style>.st0{fill:#00A5C9;}</style><path class="st0" d="M19.5 46.7c-.3 0-.4-.1-.6-.2-.6-.3-3.5-1.4-7-3.3-3.3-1.8-8-4.6-9.9-8.1C-.6 30.3-.2 22.8.3 17.6.9 11.7 2 6.7 2 6.6c.1-.4.4-.7.8-.7 3.6-.1 10.5-.8 16.1-5.5.2-.3.5-.4.8-.4h.1c.3 0 .6.3.7.5 2.4 3.1 8.9 5.4 15.6 5.4.5 0 .9.3 1 .7 0 .1 1.1 5 1.7 11 .5 5.2.8 12.7-1.7 17.5-1.9 3.5-6.5 6.3-9.9 8.1-3.2 1.7-5.9 2.9-6.9 3.3-.3.1-.5.2-.8.2.1 0 .1 0 0 0zm0-44.3c-3 3.1-8.8 5-15.7 5.2h-.2v.2c-.4 1.7-1 5.3-1.5 9.9-.3 3.5-.8 12.1 1.5 16.5 1.7 3.2 7.5 6.5 9.2 7.4 3.1 1.7 5.7 2.8 6.7 3.1 1.2-.4 3.8-1.5 6.9-3.1 1.7-.9 7.5-4.2 9.2-7.4 2.4-4.4 1.9-13 1.5-16.5-.4-4.6-1.1-8.2-1.5-9.9v-.2h-.2c-6.8-.2-12.6-2.1-15.5-5.2l-.2-.2-.2.2z"/><path class="st0" d="M30.6 16.9L18.2 28.8l-7.7-8c-.3-.4-.9-.4-1.3 0-.4.3-.4.9 0 1.3l8.3 8.6c.2.2.4.3.6.3.2 0 .5-.1.6-.3l13-12.5c.4-.3.4-.9 0-1.3-.2-.3-.8-.3-1.1 0"/></svg>