<svg id="Layer_1" xmlns="http://www.w3.org/2000/svg" width="126" height="105" viewBox="0 0 59 49"><style>.st0{fill:#00A5C9;}</style><path class="st0" d="M19.2 23.5c-2.2 0-4-1.8-4-4s1.8-4 4-4 4 1.8 4 4c.1 2.2-1.8 4-4 4zm0-6.5c-1.3 0-2.4 1.1-2.4 2.4 0 1.3 1.1 2.4 2.4 2.4 1.3 0 2.4-1.1 2.4-2.4 0-1.3-1.1-2.4-2.4-2.4zM29.2 23.5c-2.2 0-4-1.8-4-4s1.8-4 4-4 4 1.8 4 4c.1 2.2-1.8 4-4 4zm0-6.5c-1.3 0-2.4 1.1-2.4 2.4 0 1.3 1.1 2.4 2.4 2.4s2.4-1.1 2.4-2.4c0-1.3-1.1-2.4-2.4-2.4zM39.2 23.5c-2.2 0-4-1.8-4-4s1.8-4 4-4 4 1.8 4 4-1.8 4-4 4zm0-6.5c-1.3 0-2.4 1.1-2.4 2.4 0 1.3 1.1 2.4 2.4 2.4 1.3 0 2.4-1.1 2.4-2.4 0-1.3-1.1-2.4-2.4-2.4z"/><path class="st0" d="M42.9 0H16.1C7.2 0 0 7.2 0 16.1v5.8C0 30.8 7.2 38 16.1 38h8.5l11.9 10.3c.5.5 1.2.7 1.9.7 1.6 0 2.9-1.3 2.9-2.9V38h1.6C51.8 38 59 30.8 59 21.9v-5.8C59 7.2 51.8 0 42.9 0zm14.4 21.9c0 7.9-6.5 14.4-14.4 14.4h-2.1c-.7 0-1.2.5-1.2 1.2v8.6c0 .7-.6 1.2-1.2 1.2-.3 0-.5-.1-.8-.3l-12-10.4c-.2-.2-.5-.3-.8-.3h-8.7c-7.9 0-14.4-6.5-14.4-14.4v-5.8c0-7.9 6.5-14.4 14.4-14.4h26.8c7.9 0 14.4 6.5 14.4 14.4v5.8z"/></svg>