<?xml version="1.0" encoding="utf-8"?>
<!-- Generator: Adobe Illustrator 16.0.0, SVG Export Plug-In . SVG Version: 6.00 Build 0)  -->
<!DOCTYPE svg PUBLIC "-//W3C//DTD SVG 1.1//EN" "http://www.w3.org/Graphics/SVG/1.1/DTD/svg11.dtd">
<svg version="1.1" id="Layer_1" xmlns="http://www.w3.org/2000/svg" xmlns:xlink="http://www.w3.org/1999/xlink" x="0px" y="0px"
	 width="84px" height="18.667px" viewBox="0 0 84 18.667" enable-background="new 0 0 84 18.667" xml:space="preserve">
<g>
	<g>
		<g>
			<g>
				<rect x="1.398" y="1.333" fill="#164194" width="57.455" height="16"/>
				<polyline fill="#FFFFFF" points="16.36,13.333 18.719,13.333 21.168,5.343 18.804,5.343 16.36,13.333 				"/>
				<path fill="#FFFFFF" d="M29.856,5.891c-0.398-0.373-1.2-0.548-2.438-0.548h-4.849l-2.449,7.991h2.349l0.771-2.511h2.381
					c0.418,0,0.704,0.077,0.817,0.228c0.087,0.119,0.091,0.312,0.011,0.574c0,0.004-0.526,1.709-0.526,1.709h2.358l0.569-1.836
					c0.161-0.523,0.123-0.947-0.097-1.257c-0.085-0.104-0.174-0.195-0.297-0.272c0.297-0.109,0.534-0.248,0.717-0.417
					c0.343-0.311,0.636-0.859,0.876-1.667C30.339,6.952,30.272,6.283,29.856,5.891 M27.122,8.882
					c-0.14,0.095-0.451,0.211-1.144,0.211h-2.204l0.616-2.011h2.493c0.857,0,0.94,0.304,0.745,0.906
					C27.491,8.438,27.316,8.75,27.122,8.882z"/>
				<path fill="#FFFFFF" d="M36.418,10.652c-0.129,0.423-0.316,0.691-0.547,0.801c-0.192,0.084-0.63,0.193-1.672,0.193
					c-1.412,0-1.566-0.229-1.571-0.24c0,0,0,0.002,0,0.006c-0.017-0.055-0.1-0.411,0.493-2.342c0.395-1.314,0.681-1.677,0.817-1.775
					c0.139-0.102,0.565-0.267,1.934-0.267c1.065,0,1.308,0.119,1.362,0.152c0.043,0.033,0.093,0.207-0.043,0.637l-0.054,0.191
					l-0.114,0.352h2.384l0.048-0.205l0.044-0.167l-0.005,0.01c0.331-1.063,0.263-1.774-0.165-2.175
					c-0.42-0.372-1.291-0.549-2.73-0.549c-1.911,0-3.204,0.204-3.946,0.616c-0.761,0.421-1.35,1.291-1.746,2.581
					c-0.892,2.912-0.717,3.718-0.513,4.072c0.342,0.582,1.438,0.854,3.44,0.854c1.698,0,2.827-0.156,3.445-0.486
					c0.639-0.34,1.132-1.072,1.46-2.174l0.086-0.258l0.105-0.351h-2.371l-0.056,0.202C36.502,10.332,36.418,10.665,36.418,10.652"/>
				<polyline fill="#FFFFFF" points="48.096,7.082 48.626,5.343 41.612,5.343 39.147,13.333 46.211,13.333 46.739,11.601 
					42.044,11.601 42.523,10.04 46.947,10.04 47.434,8.453 43.01,8.453 43.428,7.082 48.096,7.082 				"/>
				<polyline fill="#FFFFFF" points="50.379,11.525 52.271,5.343 49.918,5.343 47.465,13.333 54.247,13.333 54.795,11.525 
					50.379,11.525 				"/>
				<path fill="#FFFFFF" d="M15.283,13.333h-2.411l-0.164-1.428H9.031L8.01,13.333H5.443l5.804-7.991h3.074L15.283,13.333
					 M12.556,10.326l-0.332-2.879l-2.068,2.879H12.556z"/>
				<rect x="58.854" y="1.333" fill="#E30613" width="23.748" height="16"/>
				<path fill="#FFFFFF" d="M60.689,10.839c2.557,1.582,5.576,2.494,8.814,2.494c3.243,0,6.266-0.912,8.828-2.494
					c-2.726,1.098-5.703,1.703-8.828,1.703C66.389,12.544,63.411,11.939,60.689,10.839"/>
				<path fill="#FFFFFF" d="M65.771,9.541c2.273,0.979,4.842,1.355,7.467,0.979c2.629-0.383,4.973-1.481,6.859-3.068
					c-2.076,1.211-4.42,2.059-6.959,2.423C70.612,10.244,68.115,10.105,65.771,9.541"/>
				<path fill="#FFFFFF" d="M70.936,8.005c1.756,0.388,3.646,0.3,5.477-0.34c1.824-0.64,3.35-1.75,4.471-3.15
					c-1.312,1.16-2.873,2.086-4.635,2.705C74.489,7.841,72.684,8.085,70.936,8.005"/>
			</g>
		</g>
	</g>
</g>
</svg>
