<?xml version="1.0" encoding="utf-8"?>
<!-- Generator: Adobe Illustrator 19.1.1, SVG Export Plug-In . SVG Version: 6.00 Build 0)  -->
<svg version="1.1" id="Layer_1" xmlns="http://www.w3.org/2000/svg" xmlns:xlink="http://www.w3.org/1999/xlink" x="0px" y="0px"
	 viewBox="0 0 89 16" style="enable-background:new 0 0 89 16;" xml:space="preserve">
<style type="text/css">
	.st0{fill:#FFFFFF;}
</style>
<g>
	<g>
		<path class="st0" d="M43.4,0c-1,0-1.8,0.8-1.8,1.8c0,1,0.8,1.8,1.8,1.8c1,0,1.8-0.8,1.8-1.8c0-0.5-0.2-0.9-0.5-1.3
			C44.3,0.2,43.9,0,43.4,0z"/>
		<polygon class="st0" points="42,15.8 44.8,15.8 44.8,4.5 42,5 		"/>
		<path class="st0" d="M35.8,4.3c-1.4,0-2.6,0.4-3.8,1l-0.3,0.2l0.8,1.7L32.8,7c0.9-0.4,1.8-0.7,2.7-0.6c1,0,1.4,0.5,1.4,1.5v0.6
			h-1.7c-2.7,0-4.4,1.4-4.4,3.6c0,2.1,1.8,3.9,4.2,3.9c2,0,3.6-0.6,4.8-1.8l0-6C39.8,5.3,37.7,4.3,35.8,4.3z M37,13.6
			c-0.3,0.2-0.8,0.4-1.5,0.4c-1.1,0-1.6-0.9-1.6-1.9c0-0.8,0.5-1.8,2-1.8l1.1,0V13.6z"/>
		<path class="st0" d="M65.6,14c-0.8,0-1.3-0.3-1.6-0.6c-0.5-0.6-0.7-1.7-0.7-2.9l6.1,0v-0.3c-0.1-4-1.4-5.8-4.4-5.8
			c-3.3,0-4.6,3.1-4.6,5.9c0,1.8,0.7,3.6,1.9,4.7c0.8,0.6,1.8,1,3,1c0.7,0,1.4-0.1,2-0.3c1.2-0.4,2.1-1,2.1-1L68.6,13
			C68.5,13.1,67.3,14,65.6,14z M65,6.5c1.3,0,1.4,1.4,1.4,2.2h-3.1C63.4,7.6,63.9,6.5,65,6.5z"/>
		<path class="st0" d="M47,6.5l0,9.3l2.9,0l0-8.7c0.4-0.4,1.2-0.7,1.9-0.7c0.7,0,1.2,0.1,1.2,0.1l0.8-1.8c-0.3-0.2-1-0.3-1.9-0.3
			C50.7,4.3,48.8,4.7,47,6.5z"/>
		<path class="st0" d="M75.4,14c-1.2-0.1-1.4-0.6-1.4-1.5l0-11.1l-2.8,0.5v10.5c0,2.5,1.3,3.5,3.6,3.5c0.5,0,1.1-0.1,1.1-0.1V14
			C75.8,14,75.5,14,75.4,14z"/>
		<path class="st0" d="M57.5,1.4l-2.9,0.5l0,10.5c0,2.4,1.4,3.5,3.7,3.5c0.6,0,1.1-0.1,1.1-0.1V14c0,0-0.2,0-0.4,0
			c-1.2,0-1.5-0.7-1.5-1.5l0-5.9h1.9V4.5h-1.9V1.4z"/>
	</g>
	<path class="st0" d="M18.8,15.5c0.9-0.3,1.6-0.8,2.3-1.2l0.2-0.1c0.7-0.5,1.4-1,2.1-1.6c1.6-1.4,2.5-2.8,3.1-4.4
		c0.2-0.7,0.5-2,0.2-3.2C26.3,4,25.8,3.3,25,2.7c-0.1-0.1-1.1-0.9-2.9-0.9c-1.7,0-3.6,0.7-5.6,2l-0.1,0l0,0c-0.1,0-0.1,0.1-0.2,0.1
		c0,0-0.1,0.1-0.2,0.1c-0.4,0.3-0.8,0.6-1.2,0.9c-0.8,0.8-1.8,2.2-1.7,3.3c0,0.5,0.2,0.9,0.6,1.2c0.3,0.3,0.8,0.4,1.3,0.4
		c1,0,2.1-0.6,2.9-1c0,0,0.1-0.1,0.1-0.1c0.1-0.1,0.3-0.2,0.4-0.3l0.1-0.1c1.1-0.7,2.2-1.5,3.5-1.9c0.3-0.1,0.6-0.2,0.9-0.2
		c0.1,0,0.3,0,0.4,0C23.7,6.4,24,6.6,24.2,7c0.3,0.6,0.2,1.5-0.2,2.4c-0.5,1.2-1.5,2.3-2.8,3.4c-0.7,0.6-1.3,1-1.8,1.3l0,0
		c-0.3,0.1-0.5,0.3-0.8,0.4l0,0c-0.1,0-0.2,0.1-0.2,0.1c-1.3,0.3-0.5-0.8-0.5-0.8c0.3-0.3,0.6-0.6,0.9-0.9c0.2-0.2,0.3-0.3,0.5-0.5
		l0,0c0.2-0.2,0.5-0.5,0.5-1c0-0.6-0.6-0.9-1.2-1c0,0,0,0,0,0c-0.5,0-1,0.3-1.4,0.6c-0.3,0.3-0.7,0.7-0.9,1c-0.3,0.5-1,1.9-0.4,3
		c0.3,0.4,0.7,0.7,1.4,0.7C17.7,15.8,18.2,15.7,18.8,15.5z"/>
</g>
</svg>
