<?xml version="1.0" encoding="utf-8"?>
<!-- Generator: Adobe Illustrator 16.0.0, SVG Export Plug-In . SVG Version: 6.00 Build 0)  -->
<!DOCTYPE svg PUBLIC "-//W3C//DTD SVG 1.0//EN" "http://www.w3.org/TR/2001/REC-SVG-20010904/DTD/svg10.dtd">
<svg version="1.0" id="Layer_1" xmlns="http://www.w3.org/2000/svg" xmlns:xlink="http://www.w3.org/1999/xlink" x="0px" y="0px"
	 width="89.25px" height="16.25px" viewBox="0 0 89.25 16.25" enable-background="new 0 0 89.25 16.25" xml:space="preserve">
<rect x="0.125" y="21.3" fill="#00AEEF" width="89" height="16"/>
<rect x="0.125" y="-48.54" fill="#00AEEF" width="89" height="16"/>
<g>
	<g>
		<g>
			<path fill="none" d="M41.531-46.775v-0.783c0-0.645,0.428-0.981,1.092-0.981c0.663,0,1.097,0.337,1.097,0.981v0.783
				c0,0.646-0.453,0.979-1.097,0.979C41.938-45.796,41.531-46.13,41.531-46.775z M42.623-48.14c-0.418,0-0.63,0.177-0.63,0.604
				v0.736c0,0.43,0.212,0.606,0.63,0.606c0.404,0,0.635-0.177,0.635-0.606v-0.736C43.258-47.963,43.027-48.14,42.623-48.14z"/>
		</g>
		<g>
			<path fill="none" d="M40.74-33.521v-0.783c0-0.646,0.429-0.979,1.091-0.979c0.664,0,1.098,0.334,1.098,0.979v0.783
				c0,0.645-0.453,0.981-1.098,0.981C41.149-32.54,40.74-32.877,40.74-33.521z M41.831-34.887c-0.418,0-0.629,0.179-0.629,0.606
				v0.736c0,0.427,0.211,0.604,0.629,0.604c0.404,0,0.636-0.177,0.636-0.604v-0.736C42.467-34.708,42.235-34.887,41.831-34.887z"/>
		</g>
		<g>
			<path fill="none" d="M58.309-40.722h-0.782c-0.646,0-0.983-0.426-0.983-1.09c0-0.665,0.338-1.097,0.983-1.097h0.782
				c0.644,0,0.981,0.453,0.981,1.097C59.29-41.129,58.952-40.722,58.309-40.722z M56.943-41.812c0,0.418,0.179,0.628,0.606,0.628
				h0.734c0.43,0,0.605-0.21,0.605-0.628c0-0.404-0.176-0.635-0.605-0.635H57.55C57.122-42.446,56.943-42.216,56.943-41.812z"/>
		</g>
		<g>
			<path fill="none" d="M31.724-38.096H30.94c-0.645,0-0.98-0.428-0.98-1.092c0-0.662,0.336-1.094,0.98-1.094h0.783
				c0.645,0,0.983,0.45,0.983,1.094C32.707-38.503,32.368-38.096,31.724-38.096z M30.358-39.188c0,0.42,0.178,0.631,0.607,0.631
				h0.735c0.428,0,0.605-0.211,0.605-0.631c0-0.403-0.178-0.633-0.605-0.633h-0.735C30.536-39.82,30.358-39.591,30.358-39.188z"/>
		</g>
	</g>
	<g>
		<g>
			<g>
				<path fill="#FFFFFF" d="M44.453-41.786h-0.347c-0.033,0-0.033-0.06-0.033-0.106c0-0.049,0-0.109,0.033-0.109h0.347v-0.607
					c0-0.028,0.074-0.028,0.128-0.028c0.061,0,0.127,0,0.127,0.028v0.607h0.594c0.027,0,0.027,0.052,0.027,0.109
					c0,0.057,0,0.106-0.027,0.106h-0.594v1.865c0,0.077,0.005,0.221,0.189,0.221h0.398c0.028,0,0.028,0.057,0.028,0.104
					s0,0.104-0.028,0.104h-0.451c-0.307,0-0.392-0.185-0.392-0.455V-41.786z"/>
				<path fill="#FFFFFF" d="M45.755-40.649v0.246c0,0.537,0.354,0.739,0.729,0.739c0.368,0,0.591-0.104,0.775-0.202
					c0.029-0.016,0.062,0.047,0.085,0.089c0.023,0.043,0.056,0.103,0.023,0.123c-0.243,0.137-0.437,0.217-0.874,0.217
					c-0.624,0-0.993-0.35-0.993-0.946v-0.786c0-0.616,0.316-0.937,0.942-0.937s0.967,0.312,0.967,0.923v0.534
					C47.409-40.649,46.114-40.649,45.755-40.649z M47.154-41.141c0-0.536-0.342-0.733-0.712-0.733c-0.364,0-0.688,0.193-0.688,0.733
					v0.26h1.399V-41.141z"/>
				<path fill="#FFFFFF" d="M47.808-39.948v-3.006c0-0.029,0.082-0.029,0.128-0.029c0.048,0,0.129,0,0.129,0.029v3.033
					c0,0.077,0.003,0.221,0.188,0.221h0.167c0.027,0,0.027,0.057,0.027,0.104s0,0.104-0.027,0.104h-0.219
					C47.893-39.493,47.808-39.678,47.808-39.948z"/>
				<path fill="#FFFFFF" d="M48.862-40.649v0.246c0,0.537,0.356,0.739,0.73,0.739c0.37,0,0.594-0.104,0.776-0.202
					c0.028-0.016,0.063,0.047,0.086,0.089c0.023,0.043,0.057,0.103,0.023,0.123c-0.24,0.137-0.436,0.217-0.877,0.217
					c-0.624,0-0.993-0.35-0.993-0.946v-0.786c0-0.616,0.316-0.937,0.943-0.937c0.628,0,0.97,0.312,0.97,0.923v0.534
					C50.521-40.649,49.224-40.649,48.862-40.649z M50.267-41.141c0-0.536-0.342-0.733-0.715-0.733c-0.365,0-0.689,0.193-0.689,0.733
					v0.26h1.404V-41.141z"/>
				<path fill="#FFFFFF" d="M52.594-39.475c-0.048,0-0.127,0-0.127-0.028v-1.681c0-0.534-0.2-0.69-0.569-0.69
					c-0.366,0-0.725,0.571-0.725,0.571v1.8c0,0.028-0.081,0.028-0.129,0.028c-0.047,0-0.128,0-0.128-0.028v-2.547
					c0-0.029,0.081-0.029,0.128-0.029c0.048,0,0.123,0,0.123,0.029v0.454c0.096-0.122,0.316-0.511,0.792-0.511
					c0.492,0,0.763,0.307,0.763,0.79v1.813C52.722-39.475,52.64-39.475,52.594-39.475z"/>
				<path fill="#FFFFFF" d="M53.11-40.36v-0.823c0-0.616,0.36-0.923,0.985-0.923c0.629,0,0.992,0.312,0.992,0.923v0.823
					c0,0.612-0.363,0.923-0.992,0.923C53.471-39.438,53.11-39.745,53.11-40.36z M54.096-41.874c-0.364,0-0.73,0.193-0.73,0.733
					v0.737c0,0.537,0.36,0.739,0.73,0.739c0.369,0,0.739-0.193,0.739-0.739v-0.737C54.835-41.677,54.47-41.874,54.096-41.874z"/>
				<path fill="#FFFFFF" d="M55.935-41.52c-0.114,0.14-0.231,0.312-0.231,0.312v1.705c0,0.028-0.082,0.028-0.129,0.028
					s-0.122,0-0.122-0.028v-2.547c0-0.029,0.079-0.029,0.128-0.029c0.047,0,0.123,0,0.123,0.029v0.573c0,0,0.132-0.19,0.18-0.255
					c0.185-0.252,0.303-0.337,0.53-0.337h0.095c0.027,0,0.027,0.089,0.027,0.137s0,0.137-0.027,0.137
					C56.224-41.795,56.139-41.772,55.935-41.52z"/>
			</g>
		</g>
		<g>
			<g>
				<g>
					<g>
						<g>
							<g>
								<g>
									<g>
										<g>
											<defs>
												<path id="SVGID_1_" d="M38.443-42.586c0.055-0.041,0.196-0.146,0.218-0.163c0.035-0.235,0.12-0.636,0.316-1.042
													c0.213-0.439,0.552-0.925,1.027-1.244c0.398-0.271,1.055-0.567,1.561-0.677c0.416-0.09,0.806-0.106,1.138-0.077
													c0.686,0.063,1.065,0.258,1.254,0.514c0.073,0.094,0.111,0.212,0.114,0.287c0.005,0.127-0.051,0.291-0.232,0.452
													c-0.175,0.157-0.548,0.354-1.062,0.526c-0.531,0.177-1.257,0.365-1.98,0.531c-0.606,0.14-1.098,0.299-1.382,0.406
													c-0.085,0.031-0.14,0.058-0.215,0.093c-0.047,0.11-0.151,0.402-0.176,0.553c0.529,0.214,0.873,0.493,1.141,0.712
													c0.344,0.285,0.745,0.616,1.24,1.219c0.452,0.553,1.188,1.607,1.455,2.632c0.29,1.121,0.106,2.188-0.524,2.484
													c-0.62,0.29-1.447-0.131-2.028-0.733c-0.552-0.575-0.938-1.251-1.301-2.291c-0.314-0.896-0.44-2.195-0.439-2.875
													c0-0.227,0-0.36,0.008-0.566c-0.254-0.162-0.551-0.153-0.887,0.04c-0.612,0.354-1.246,1.116-1.585,1.515
													c-0.147,0.174-0.347,0.43-0.558,0.695c-0.279,0.352-0.586,0.718-0.867,0.922c-0.422,0.308-1.101,0.437-1.574,0.098
													c-0.266-0.191-0.408-0.549-0.41-0.913c-0.004-0.257,0.06-0.489,0.188-0.716c0.158-0.281,0.42-0.581,0.836-0.927
													c0.43-0.355,1.115-0.755,1.802-1.033C36.567-42.586,37.696-42.722,38.443-42.586L38.443-42.586z"/>
											</defs>
											<clipPath id="SVGID_2_">
												<use xlink:href="#SVGID_1_"  overflow="visible"/>
											</clipPath>
											<g id="White_Symbol_x5F_200mm_x5F_NEW070.psd_1_" clip-path="url(#SVGID_2_)">
												<g>
													<defs>
														<rect id="SVGID_3_" x="32.577" y="-45.922" width="11.649" height="10.733"/>
													</defs>
													<clipPath id="SVGID_4_">
														<use xlink:href="#SVGID_3_"  overflow="visible"/>
													</clipPath>
													<g id="White_Symbol_x5F_200mm_x5F_NEW070.psd_2_" clip-path="url(#SVGID_4_)">
														<g>
															<defs>
																<rect id="SVGID_5_" x="32.577" y="-45.922" width="11.649" height="10.733"/>
															</defs>
															<clipPath id="SVGID_6_">
																<use xlink:href="#SVGID_5_"  overflow="visible"/>
															</clipPath>
															<g transform="matrix(0.0045 0 0 0.0045 32.5771 -45.9219)" clip-path="url(#SVGID_6_)">
																
																	<image overflow="visible" width="2617" height="2411" xlink:href="69F3576AAABEFE90.jpg"  transform="matrix(0.0045 0 0 0.0045 32.5771 -45.9219)">
																</image>
															</g>
														</g>
													</g>
												</g>
											</g>
										</g>
									</g>
								</g>
							</g>
						</g>
					</g>
				</g>
			</g>
		</g>
	</g>
</g>
<rect x="0.124" y="-20.29" fill="none" stroke="#000000" stroke-width="0.1" stroke-miterlimit="10" width="89" height="16"/>
<g>
	<g>
		<g>
			<path fill="none" d="M41.53-18.524v-0.783c0-0.645,0.428-0.982,1.092-0.982s1.096,0.338,1.096,0.982v0.783
				c0,0.645-0.451,0.98-1.096,0.98C41.94-17.544,41.53-17.88,41.53-18.524z M42.622-19.89c-0.418,0-0.631,0.178-0.631,0.605v0.736
				c0,0.428,0.213,0.605,0.631,0.605c0.404,0,0.635-0.178,0.635-0.605v-0.736C43.257-19.712,43.026-19.89,42.622-19.89z"/>
		</g>
		<g>
			<path fill="none" d="M40.739-5.271v-0.783c0-0.645,0.43-0.98,1.092-0.98c0.664,0,1.098,0.336,1.098,0.98v0.783
				c0,0.645-0.453,0.98-1.098,0.98C41.149-4.29,40.739-4.626,40.739-5.271z M41.831-6.636c-0.418,0-0.629,0.178-0.629,0.605v0.736
				c0,0.428,0.211,0.605,0.629,0.605c0.404,0,0.635-0.178,0.635-0.605V-6.03C42.466-6.458,42.235-6.636,41.831-6.636z"/>
		</g>
		<g>
			<path fill="none" d="M58.308-12.47h-0.783c-0.645,0-0.98-0.428-0.98-1.092s0.336-1.096,0.98-1.096h0.783
				c0.645,0,0.982,0.451,0.982,1.096C59.29-12.878,58.952-12.47,58.308-12.47z M56.942-13.562c0,0.418,0.178,0.629,0.605,0.629
				h0.736c0.428,0,0.605-0.211,0.605-0.629c0-0.404-0.178-0.635-0.605-0.635h-0.736C57.12-14.196,56.942-13.966,56.942-13.562z"/>
		</g>
		<g>
			<path fill="none" d="M31.724-9.845H30.94c-0.645,0-0.98-0.428-0.98-1.092s0.336-1.096,0.98-1.096h0.783
				c0.645,0,0.982,0.451,0.982,1.096C32.706-10.253,32.368-9.845,31.724-9.845z M30.358-10.937c0,0.418,0.178,0.631,0.607,0.631
				H31.7c0.428,0,0.605-0.213,0.605-0.631c0-0.404-0.178-0.635-0.605-0.635h-0.734C30.536-11.571,30.358-11.341,30.358-10.937z"/>
		</g>
	</g>
	<g>
		<g>
			<g>
				<path d="M44.452-13.534h-0.346c-0.033,0-0.033-0.062-0.033-0.109s0-0.107,0.033-0.107h0.346v-0.607
					c0-0.027,0.076-0.027,0.127-0.027c0.062,0,0.129,0,0.129,0.027v0.607H45.3c0.027,0,0.027,0.051,0.027,0.107s0,0.109-0.027,0.109
					h-0.592v1.865c0,0.076,0.004,0.219,0.189,0.219h0.398c0.027,0,0.027,0.057,0.027,0.104s0,0.104-0.027,0.104h-0.451
					c-0.307,0-0.393-0.186-0.393-0.455V-13.534z"/>
				<path d="M45.755-12.399v0.248c0,0.535,0.355,0.738,0.729,0.738c0.367,0,0.59-0.105,0.773-0.203
					c0.029-0.016,0.062,0.047,0.086,0.09c0.023,0.041,0.057,0.104,0.023,0.123c-0.24,0.137-0.436,0.217-0.873,0.217
					c-0.625,0-0.994-0.35-0.994-0.947v-0.787c0-0.613,0.316-0.936,0.943-0.936c0.625,0,0.967,0.312,0.967,0.922v0.535
					C47.409-12.399,46.114-12.399,45.755-12.399z M47.153-12.892c0-0.533-0.34-0.732-0.711-0.732c-0.365,0-0.688,0.193-0.688,0.732
					v0.26h1.398V-12.892z"/>
				<path d="M47.808-11.698v-3.006c0-0.027,0.08-0.027,0.127-0.027s0.129,0,0.129,0.027v3.035c0,0.076,0.004,0.219,0.189,0.219
					h0.166c0.027,0,0.027,0.057,0.027,0.104s0,0.104-0.027,0.104H48.2C47.894-11.243,47.808-11.429,47.808-11.698z"/>
				<path d="M48.862-12.399v0.248c0,0.535,0.355,0.738,0.73,0.738c0.369,0,0.592-0.105,0.777-0.203
					c0.027-0.016,0.061,0.047,0.086,0.09c0.021,0.041,0.055,0.104,0.021,0.123c-0.24,0.137-0.436,0.217-0.875,0.217
					c-0.625,0-0.996-0.35-0.996-0.947v-0.787c0-0.613,0.318-0.936,0.943-0.936c0.631,0,0.971,0.312,0.971,0.922v0.535
					C50.521-12.399,49.224-12.399,48.862-12.399z M50.265-12.892c0-0.533-0.342-0.732-0.715-0.732c-0.365,0-0.688,0.193-0.688,0.732
					v0.26h1.402V-12.892z"/>
				<path d="M52.593-11.224c-0.047,0-0.127,0-0.127-0.027v-1.684c0-0.533-0.201-0.689-0.568-0.689c-0.365,0-0.727,0.57-0.727,0.57
					v1.803c0,0.027-0.08,0.027-0.127,0.027s-0.129,0-0.129-0.027V-13.8c0-0.027,0.082-0.027,0.129-0.027s0.123,0,0.123,0.027v0.455
					c0.094-0.123,0.316-0.512,0.791-0.512c0.492,0,0.762,0.309,0.762,0.789v1.816C52.72-11.224,52.64-11.224,52.593-11.224z"/>
				<path d="M53.108-12.11v-0.824c0-0.613,0.361-0.922,0.986-0.922c0.631,0,0.99,0.312,0.99,0.922v0.824
					c0,0.611-0.359,0.924-0.99,0.924C53.47-11.187,53.108-11.493,53.108-12.11z M54.095-13.624c-0.365,0-0.73,0.193-0.73,0.732v0.74
					c0,0.535,0.361,0.738,0.73,0.738s0.738-0.193,0.738-0.738v-0.74C54.833-13.425,54.468-13.624,54.095-13.624z"/>
				<path d="M55.935-13.269c-0.115,0.141-0.232,0.311-0.232,0.311v1.707c0,0.027-0.08,0.027-0.129,0.027
					c-0.047,0-0.123,0-0.123-0.027V-13.8c0-0.027,0.08-0.027,0.129-0.027c0.047,0,0.123,0,0.123,0.027v0.574
					c0,0,0.133-0.189,0.18-0.256c0.184-0.252,0.303-0.336,0.531-0.336h0.094c0.029,0,0.029,0.088,0.029,0.137
					c0,0.047,0,0.137-0.029,0.137C56.224-13.544,56.138-13.521,55.935-13.269z"/>
			</g>
		</g>
		<g>
			<g>
				<g>
					<g>
						<g>
							<g>
								<g>
									<g>
										<defs>
											<path id="SVGID_7_" d="M38.442-14.335c0.055-0.041,0.197-0.148,0.219-0.164c0.035-0.236,0.119-0.633,0.316-1.041
												c0.213-0.439,0.553-0.924,1.027-1.246c0.398-0.27,1.055-0.566,1.561-0.674c0.416-0.092,0.805-0.107,1.137-0.078
												c0.688,0.062,1.066,0.258,1.256,0.512c0.07,0.096,0.111,0.213,0.113,0.289c0.004,0.125-0.053,0.291-0.232,0.451
												c-0.176,0.158-0.549,0.355-1.062,0.527c-0.531,0.176-1.256,0.363-1.98,0.531c-0.605,0.141-1.096,0.299-1.381,0.406
												c-0.086,0.031-0.141,0.057-0.215,0.09c-0.047,0.111-0.15,0.402-0.178,0.557c0.531,0.213,0.875,0.494,1.141,0.711
												c0.346,0.283,0.746,0.617,1.242,1.219c0.451,0.551,1.188,1.605,1.453,2.631c0.293,1.121,0.109,2.188-0.523,2.484
												c-0.619,0.291-1.447-0.131-2.027-0.732c-0.553-0.576-0.938-1.252-1.301-2.291c-0.312-0.898-0.441-2.197-0.439-2.875
												c0-0.227,0-0.361,0.008-0.566c-0.254-0.162-0.551-0.154-0.887,0.041c-0.613,0.354-1.246,1.115-1.584,1.512
												c-0.148,0.176-0.348,0.43-0.559,0.695c-0.279,0.352-0.586,0.719-0.867,0.924c-0.422,0.307-1.1,0.436-1.574,0.096
												c-0.266-0.189-0.406-0.547-0.41-0.91c-0.004-0.258,0.059-0.49,0.188-0.719c0.158-0.279,0.42-0.58,0.836-0.926
												c0.43-0.355,1.115-0.756,1.801-1.031C36.567-14.337,37.694-14.472,38.442-14.335L38.442-14.335z"/>
										</defs>
										<clipPath id="SVGID_8_">
											<use xlink:href="#SVGID_7_"  overflow="visible"/>
										</clipPath>
										<g transform="matrix(0.004 -0.0019 0.0019 0.004 31.626 -12.9951)" clip-path="url(#SVGID_8_)">
											
												<image overflow="visible" width="2925" height="2250" xlink:href="69F3576AAABEFE91.jpg"  transform="matrix(0.004 -0.0019 0.0019 0.004 31.626 -12.9951)">
											</image>
										</g>
									</g>
								</g>
							</g>
						</g>
					</g>
				</g>
			</g>
		</g>
	</g>
</g>
<rect x="0.124" y="0.125" fill="none" stroke="#000000" stroke-width="0.1" stroke-miterlimit="10" width="89" height="16"/>
<g>
	<g>
		<g>
			<g>
				<g>
					<g>
						<g>
							<g>
								<g>
									<g>
										<g>
											<defs>
												<path id="SVGID_9_" d="M44.68,25.924c0.046-0.034,0.166-0.122,0.184-0.136c0.028-0.197,0.1-0.531,0.265-0.872
													c0.177-0.367,0.461-0.772,0.858-1.042c0.334-0.225,0.883-0.473,1.306-0.564c0.347-0.075,0.674-0.089,0.952-0.065
													c0.573,0.053,0.891,0.217,1.049,0.429c0.06,0.08,0.094,0.179,0.096,0.241c0.003,0.105-0.043,0.243-0.194,0.378
													c-0.147,0.133-0.461,0.297-0.889,0.44c-0.444,0.147-1.051,0.306-1.656,0.445c-0.508,0.117-0.918,0.25-1.155,0.34
													c-0.072,0.025-0.119,0.048-0.181,0.076c-0.039,0.094-0.128,0.339-0.147,0.464c0.443,0.179,0.73,0.413,0.953,0.596
													c0.289,0.237,0.626,0.515,1.039,1.02c0.377,0.461,0.992,1.343,1.215,2.2c0.245,0.938,0.092,1.83-0.437,2.079
													c-0.519,0.243-1.212-0.109-1.696-0.614c-0.463-0.48-0.786-1.045-1.088-1.916c-0.262-0.751-0.369-1.837-0.369-2.405
													c0-0.188,0-0.303,0.007-0.473c-0.213-0.138-0.461-0.129-0.741,0.032c-0.514,0.296-1.042,0.934-1.326,1.267
													c-0.122,0.146-0.289,0.358-0.466,0.582c-0.234,0.294-0.491,0.602-0.726,0.771c-0.354,0.257-0.92,0.365-1.317,0.081
													c-0.223-0.159-0.34-0.459-0.344-0.761c-0.002-0.218,0.051-0.412,0.156-0.601c0.133-0.236,0.353-0.488,0.7-0.775
													c0.359-0.297,0.934-0.632,1.507-0.863C43.11,25.924,44.054,25.81,44.68,25.924L44.68,25.924z"/>
											</defs>
											<clipPath id="SVGID_10_">
												<use xlink:href="#SVGID_9_"  overflow="visible"/>
											</clipPath>
											<g id="White_Symbol_x5F_200mm_x5F_NEW070.psd_5_" clip-path="url(#SVGID_10_)">
												<g>
													<defs>
														<rect id="SVGID_11_" x="39.773" y="23.134" width="9.746" height="8.978"/>
													</defs>
													<clipPath id="SVGID_12_">
														<use xlink:href="#SVGID_11_"  overflow="visible"/>
													</clipPath>
													<g id="White_Symbol_x5F_200mm_x5F_NEW070.psd_6_" clip-path="url(#SVGID_12_)">
														<g>
															<defs>
																<rect id="SVGID_13_" x="39.773" y="23.134" width="9.746" height="8.978"/>
															</defs>
															<clipPath id="SVGID_14_">
																<use xlink:href="#SVGID_13_"  overflow="visible"/>
															</clipPath>
															<g transform="matrix(0.0037 0 0 0.0037 39.7734 23.1338)" clip-path="url(#SVGID_14_)">
																
																	<image overflow="visible" width="2617" height="2411" xlink:href="69F3576AAABEFE97.jpg"  transform="matrix(0.0037 0 0 0.0037 39.7734 23.1338)">
																</image>
															</g>
														</g>
													</g>
												</g>
											</g>
										</g>
									</g>
								</g>
							</g>
						</g>
					</g>
				</g>
			</g>
		</g>
		<g>
			<g>
				<g>
					<path fill="#FFFFFF" d="M40.521,33.619h-0.254c-0.023,0-0.023-0.046-0.023-0.08c0-0.033,0-0.079,0.023-0.079h0.254v-0.445
						c0-0.021,0.056-0.021,0.094-0.021c0.046,0,0.095,0,0.095,0.021v0.445h0.436c0.021,0,0.021,0.039,0.021,0.079
						c0,0.041,0,0.08-0.021,0.08H40.71v1.37c0,0.057,0.004,0.16,0.14,0.16h0.29c0.021,0,0.021,0.042,0.021,0.076
						c0,0.036,0,0.077-0.021,0.077h-0.329c-0.227,0-0.289-0.137-0.289-0.334V33.619z"/>
					<path fill="#FFFFFF" d="M41.479,34.454v0.18c0,0.395,0.26,0.545,0.535,0.545c0.271,0,0.434-0.077,0.569-0.15
						c0.021-0.012,0.046,0.034,0.063,0.064c0.017,0.033,0.042,0.077,0.017,0.092c-0.177,0.101-0.319,0.16-0.643,0.16
						c-0.459,0-0.73-0.258-0.73-0.697v-0.576c0-0.452,0.232-0.688,0.691-0.688c0.463,0,0.714,0.229,0.714,0.679v0.393
						C42.695,34.454,41.742,34.454,41.479,34.454z M42.507,34.092c0-0.393-0.25-0.539-0.525-0.539c-0.267,0-0.503,0.144-0.503,0.539
						v0.192h1.028V34.092z"/>
					<path fill="#FFFFFF" d="M42.988,34.969v-2.208c0-0.021,0.058-0.021,0.093-0.021c0.034,0,0.094,0,0.094,0.021v2.229
						c0,0.057,0.004,0.16,0.14,0.16h0.122c0.021,0,0.021,0.042,0.021,0.076c0,0.036,0,0.077-0.021,0.077h-0.161
						C43.049,35.303,42.988,35.166,42.988,34.969z"/>
					<path fill="#FFFFFF" d="M43.762,34.454v0.18c0,0.395,0.262,0.545,0.535,0.545c0.272,0,0.436-0.077,0.571-0.15
						c0.021-0.012,0.044,0.034,0.062,0.064c0.018,0.033,0.041,0.077,0.018,0.092c-0.177,0.101-0.32,0.16-0.645,0.16
						c-0.459,0-0.729-0.258-0.729-0.697v-0.576c0-0.452,0.233-0.688,0.692-0.688c0.462,0,0.712,0.229,0.712,0.679v0.393
						C44.979,34.454,44.026,34.454,43.762,34.454z M44.792,34.092c0-0.393-0.25-0.539-0.525-0.539c-0.269,0-0.505,0.144-0.505,0.539
						v0.192h1.03V34.092z"/>
					<path fill="#FFFFFF" d="M46.504,35.316c-0.036,0-0.096,0-0.096-0.021v-1.234c0-0.393-0.146-0.509-0.418-0.509
						c-0.267,0-0.53,0.422-0.53,0.422v1.321c0,0.021-0.06,0.021-0.096,0.021c-0.034,0-0.094,0-0.094-0.021v-1.872
						c0-0.021,0.06-0.021,0.094-0.021c0.036,0,0.092,0,0.092,0.021v0.335c0.068-0.09,0.233-0.376,0.58-0.376
						c0.362,0,0.561,0.227,0.561,0.582v1.331C46.597,35.316,46.537,35.316,46.504,35.316z"/>
					<path fill="#FFFFFF" d="M46.881,34.667v-0.605c0-0.452,0.266-0.679,0.725-0.679c0.462,0,0.73,0.229,0.73,0.679v0.605
						c0,0.448-0.269,0.678-0.73,0.678C47.146,35.345,46.881,35.119,46.881,34.667z M47.605,33.553c-0.269,0-0.536,0.144-0.536,0.539
						v0.542c0,0.395,0.264,0.545,0.536,0.545c0.271,0,0.542-0.144,0.542-0.545v-0.542C48.147,33.699,47.879,33.553,47.605,33.553z"
						/>
					<path fill="#FFFFFF" d="M48.958,33.814c-0.085,0.104-0.172,0.229-0.172,0.229v1.252c0,0.021-0.058,0.021-0.093,0.021
						c-0.034,0-0.091,0-0.091-0.021v-1.872c0-0.021,0.06-0.021,0.094-0.021c0.036,0,0.09,0,0.09,0.021v0.422
						c0,0,0.098-0.14,0.133-0.188c0.136-0.184,0.223-0.247,0.39-0.247h0.069c0.022,0,0.022,0.066,0.022,0.103
						c0,0.033,0,0.1-0.022,0.1C49.169,33.612,49.106,33.63,48.958,33.814z"/>
				</g>
			</g>
		</g>
	</g>
	<g>
		<path fill="none" d="M47.437,22.566V21.97c0-0.447,0.261-0.67,0.714-0.67c0.458,0,0.721,0.227,0.721,0.67v0.597
			c0,0.443-0.263,0.67-0.721,0.67C47.697,23.236,47.437,23.014,47.437,22.566z M48.15,21.468c-0.263,0-0.528,0.142-0.528,0.532
			v0.536c0,0.389,0.262,0.535,0.528,0.535c0.269,0,0.536-0.142,0.536-0.535V22C48.687,21.612,48.423,21.468,48.15,21.468z"/>
		<path fill="none" d="M50.053,23.067h0.597c0.445,0,0.67,0.261,0.67,0.715c0,0.455-0.228,0.721-0.67,0.721h-0.597
			c-0.443,0-0.67-0.266-0.67-0.721C49.383,23.328,49.605,23.067,50.053,23.067z M51.151,23.782c0-0.266-0.142-0.531-0.532-0.531
			h-0.535c-0.39,0-0.538,0.262-0.538,0.531c0,0.267,0.142,0.535,0.538,0.535h0.535C51.007,24.317,51.151,24.052,51.151,23.782z"/>
		<path fill="none" d="M46.886,36.63v-0.597c0-0.447,0.262-0.67,0.716-0.67c0.456,0,0.721,0.227,0.721,0.67v0.597
			c0,0.443-0.265,0.67-0.721,0.67C47.147,37.3,46.886,37.077,46.886,36.63z M47.602,35.532c-0.265,0-0.53,0.139-0.53,0.531V36.6
			c0,0.388,0.262,0.535,0.53,0.535c0.267,0,0.535-0.141,0.535-0.535v-0.536C48.137,35.675,47.872,35.532,47.602,35.532z"/>
		<path fill="none" d="M38.601,27.939h0.599c0.445,0,0.668,0.261,0.668,0.715c0,0.455-0.227,0.721-0.668,0.721h-0.599
			c-0.442,0-0.67-0.266-0.67-0.721C37.931,28.2,38.155,27.939,38.601,27.939z M39.7,28.654c0-0.266-0.141-0.529-0.534-0.529h-0.535
			c-0.388,0-0.535,0.26-0.535,0.529c0,0.267,0.141,0.535,0.535,0.535h0.535C39.556,29.189,39.7,28.924,39.7,28.654z"/>
	</g>
</g>
<g>
	<g>
		<g>
			<g>
				<g>
					<g>
						<path d="M40.521,12.445h-0.254c-0.023,0-0.023-0.045-0.023-0.08s0-0.08,0.023-0.08h0.254V11.84
							c0-0.021,0.057-0.021,0.094-0.021c0.045,0,0.096,0,0.096,0.021v0.445h0.434c0.021,0,0.021,0.039,0.021,0.08s0,0.08-0.021,0.08
							H40.71v1.371c0,0.055,0.002,0.158,0.139,0.158h0.291c0.021,0,0.021,0.043,0.021,0.078c0,0.033,0,0.076-0.021,0.076h-0.33
							c-0.225,0-0.289-0.137-0.289-0.334V12.445z"/>
						<path d="M41.478,13.279v0.182c0,0.393,0.26,0.543,0.535,0.543c0.271,0,0.436-0.076,0.57-0.15
							c0.021-0.01,0.045,0.035,0.062,0.066s0.041,0.076,0.018,0.09c-0.178,0.102-0.32,0.16-0.643,0.16
							c-0.461,0-0.73-0.256-0.73-0.695v-0.578c0-0.451,0.232-0.688,0.691-0.688c0.463,0,0.713,0.229,0.713,0.678v0.393
							C42.694,13.279,41.741,13.279,41.478,13.279z M42.507,12.918c0-0.393-0.25-0.539-0.525-0.539
							c-0.268,0-0.504,0.143-0.504,0.539v0.191h1.029V12.918z"/>
						<path d="M42.985,13.795v-2.209c0-0.021,0.061-0.021,0.094-0.021c0.037,0,0.096,0,0.096,0.021v2.23
							c0,0.055,0.002,0.158,0.139,0.158h0.121c0.021,0,0.021,0.043,0.021,0.078c0,0.033,0,0.076-0.021,0.076h-0.16
							C43.05,14.129,42.985,13.992,42.985,13.795z"/>
						<path d="M43.761,13.279v0.182c0,0.393,0.262,0.543,0.537,0.543c0.27,0,0.434-0.076,0.568-0.15
							c0.021-0.01,0.047,0.035,0.064,0.066s0.041,0.076,0.018,0.09c-0.178,0.102-0.32,0.16-0.645,0.16
							c-0.459,0-0.73-0.256-0.73-0.695v-0.578c0-0.451,0.232-0.688,0.691-0.688c0.463,0,0.713,0.229,0.713,0.678v0.393
							C44.978,13.279,44.026,13.279,43.761,13.279z M44.79,12.918c0-0.393-0.25-0.539-0.525-0.539c-0.268,0-0.504,0.143-0.504,0.539
							v0.191h1.029V12.918z"/>
						<path d="M46.501,14.143c-0.033,0-0.094,0-0.094-0.021v-1.234c0-0.393-0.145-0.508-0.418-0.508
							c-0.266,0-0.531,0.422-0.531,0.422v1.32c0,0.021-0.059,0.021-0.094,0.021s-0.094,0-0.094-0.021V12.25
							c0-0.02,0.059-0.02,0.094-0.02s0.09,0,0.09,0.02v0.334c0.07-0.09,0.234-0.375,0.582-0.375c0.361,0,0.561,0.227,0.561,0.58
							v1.332C46.597,14.143,46.536,14.143,46.501,14.143z"/>
						<path d="M46.882,13.492v-0.605c0-0.451,0.264-0.678,0.723-0.678c0.463,0,0.73,0.229,0.73,0.678v0.605
							c0,0.449-0.268,0.678-0.73,0.678C47.146,14.17,46.882,13.943,46.882,13.492z M47.604,12.379c-0.268,0-0.535,0.143-0.535,0.539
							v0.543c0,0.393,0.264,0.543,0.535,0.543s0.543-0.143,0.543-0.543v-0.543C48.147,12.525,47.878,12.379,47.604,12.379z"/>
						<path d="M48.956,12.641c-0.082,0.104-0.17,0.229-0.17,0.229v1.252c0,0.021-0.059,0.021-0.094,0.021
							c-0.033,0-0.09,0-0.09-0.021V12.25c0-0.02,0.061-0.02,0.094-0.02c0.035,0,0.09,0,0.09,0.02v0.422c0,0,0.098-0.141,0.133-0.189
							c0.135-0.184,0.223-0.246,0.391-0.246h0.068c0.021,0,0.021,0.066,0.021,0.1c0,0.037,0,0.102-0.021,0.102
							C49.169,12.438,49.106,12.455,48.956,12.641z"/>
					</g>
				</g>
			</g>
			<g>
				<g>
					<g>
						<g>
							<g>
								<g>
									<g>
										<g>
											<defs>
												<path id="SVGID_15_" d="M44.679,4.75c0.047-0.033,0.166-0.123,0.184-0.137c0.029-0.197,0.1-0.531,0.266-0.871
													c0.176-0.367,0.461-0.773,0.857-1.043c0.334-0.225,0.883-0.473,1.307-0.564c0.348-0.076,0.674-0.09,0.951-0.064
													c0.574,0.053,0.891,0.217,1.051,0.43c0.059,0.078,0.092,0.176,0.094,0.24c0.004,0.105-0.043,0.244-0.193,0.377
													c-0.146,0.133-0.461,0.297-0.891,0.439c-0.443,0.15-1.049,0.307-1.654,0.447c-0.508,0.117-0.92,0.25-1.158,0.34
													c-0.07,0.025-0.117,0.047-0.18,0.076c-0.037,0.09-0.125,0.336-0.146,0.465c0.443,0.178,0.73,0.412,0.953,0.594
													c0.289,0.236,0.625,0.516,1.039,1.021c0.379,0.459,0.992,1.342,1.217,2.199c0.244,0.938,0.092,1.83-0.438,2.078
													c-0.52,0.244-1.213-0.107-1.697-0.613c-0.461-0.48-0.785-1.045-1.088-1.916c-0.262-0.75-0.369-1.838-0.367-2.406
													c0-0.188,0-0.301,0.006-0.473c-0.213-0.137-0.461-0.129-0.742,0.033c-0.512,0.297-1.043,0.934-1.326,1.268
													c-0.123,0.145-0.289,0.359-0.467,0.582c-0.232,0.293-0.49,0.6-0.725,0.771c-0.354,0.256-0.92,0.365-1.318,0.08
													c-0.221-0.158-0.338-0.459-0.342-0.762c-0.004-0.217,0.051-0.41,0.156-0.602c0.133-0.234,0.352-0.484,0.699-0.773
													c0.359-0.299,0.934-0.633,1.508-0.863C43.11,4.748,44.054,4.637,44.679,4.75L44.679,4.75z"/>
											</defs>
											<clipPath id="SVGID_16_">
												<use xlink:href="#SVGID_15_"  overflow="visible"/>
											</clipPath>
											<g transform="matrix(0.0034 -0.0016 0.0016 0.0034 38.9775 5.8711)" clip-path="url(#SVGID_16_)">
												
													<image overflow="visible" width="2925" height="2250" xlink:href="69F3576AAABEFE92.jpg"  transform="matrix(0.0034 -0.0016 0.0016 0.0034 38.9775 5.8711)">
												</image>
											</g>
										</g>
									</g>
								</g>
							</g>
						</g>
					</g>
				</g>
			</g>
		</g>
		<g>
			<path fill="none" d="M47.437,1.393V0.795c0-0.445,0.26-0.67,0.713-0.67c0.457,0,0.723,0.229,0.723,0.67v0.598
				c0,0.443-0.266,0.67-0.723,0.67C47.696,2.062,47.437,1.838,47.437,1.393z M48.149,0.293c-0.264,0-0.527,0.143-0.527,0.533v0.535
				c0,0.389,0.262,0.535,0.527,0.535c0.27,0,0.537-0.141,0.537-0.535V0.826C48.687,0.438,48.421,0.293,48.149,0.293z"/>
			<path fill="none" d="M50.052,1.893h0.598c0.445,0,0.67,0.262,0.67,0.715c0,0.455-0.229,0.721-0.67,0.721h-0.598
				c-0.443,0-0.67-0.266-0.67-0.721C49.382,2.154,49.604,1.893,50.052,1.893z M51.151,2.607c0-0.266-0.143-0.529-0.533-0.529h-0.535
				c-0.389,0-0.535,0.26-0.535,0.529c0,0.268,0.141,0.535,0.535,0.535h0.535C51.005,3.143,51.151,2.877,51.151,2.607z"/>
			<path fill="none" d="M46.886,15.455v-0.598c0-0.445,0.26-0.668,0.715-0.668s0.721,0.227,0.721,0.668v0.598
				c0,0.443-0.266,0.67-0.721,0.67S46.886,15.902,46.886,15.455z M47.601,14.357c-0.266,0-0.529,0.141-0.529,0.531v0.537
				c0,0.387,0.262,0.535,0.529,0.535s0.535-0.141,0.535-0.535v-0.537C48.136,14.502,47.872,14.357,47.601,14.357z"/>
			<path fill="none" d="M38.601,6.766h0.598c0.445,0,0.668,0.26,0.668,0.713c0,0.457-0.227,0.723-0.668,0.723h-0.598
				c-0.443,0-0.67-0.266-0.67-0.723C37.931,7.025,38.153,6.766,38.601,6.766z M39.7,7.479c0-0.264-0.143-0.529-0.533-0.529h-0.535
				c-0.389,0-0.537,0.262-0.537,0.529c0,0.27,0.141,0.535,0.537,0.535h0.535C39.554,8.014,39.7,7.75,39.7,7.479z"/>
		</g>
	</g>
</g>
</svg>
