<svg id="Layer_1" xmlns="http://www.w3.org/2000/svg" width="82" height="39" viewBox="0 0 81.9 38.9"><style>.st0{fill:#5C5478;}</style><path class="st0" d="M77.8 38.9h-61c-.9 0-1.8-.3-2.5-.8l-.1-.1-13-15.2c-1.6-1.9-1.6-4.7 0-6.6L14.3.9c.7-.6 1.6-.9 2.5-.9h61c2.2 0 4.1 1.8 4.1 4.1v30.8c0 2.2-1.9 4-4.1 4zm-62.6-1.8c.5.3 1 .5 1.6.5h61c1.5 0 2.7-1.2 2.7-2.7V4.1c0-1.5-1.2-2.7-2.7-2.7h-61c-.6 0-1.1.2-1.6.5L2.3 17c-1.2 1.4-1.2 3.5 0 4.9l12.9 15.2z"/><path class="st0" d="M64.8 10.5l-8.2 7.9-7.9-8.2c-.4-.4-.9-.4-1.3 0s-.4.9 0 1.3l7.9 8.2-8.2 7.9c-.4.4-.4.9 0 1.3.2.2.4.3.7.3.2 0 .5-.1.6-.3l8.2-7.9 7.9 8.2c.2.2.4.3.7.3.2 0 .5-.1.6-.3.4-.3.4-.9 0-1.3l-7.9-8.2 8.2-7.9c.4-.4.4-.9 0-1.3-.3-.3-.9-.3-1.3 0"/></svg>