<svg id="Layer_1" xmlns="http://www.w3.org/2000/svg" width="130" height="130" viewBox="0 0 129.9 129.9"><style>.st0{fill:#595779;}</style><path class="st0" d="M66.1 0h-1.2C29.8 0 .7 28.6 0 63.8c-.7 35.8 28 65.5 63.8 66.1H65c35.2 0 64.3-28.6 64.9-63.8.3-17.4-6.1-33.8-18.2-46.3C99.7 7.4 83.5.3 66.1 0M65 125.3h-1.1c-33.3-.6-59.8-28.2-59.2-61.4.6-32.7 27.6-59.2 60.2-59.2H66c16.1.3 31.1 6.8 42.3 18.4 11.2 11.6 17.2 26.9 17 42.9-.6 32.7-27.7 59.3-60.3 59.3"/><path class="st0" d="M85.9 41.6L65 61.7 44.9 40.8c-.9-.9-2.4-.9-3.3-.1-.9.9-1 2.4-.1 3.3l20.1 20.9L40.8 85c-.9.9-1 2.4-.1 3.3.5.5 1.1.7 1.7.7.6 0 1.2-.2 1.6-.7l20.9-20.1L85 89.1c.5.5 1.1.7 1.7.7.6 0 1.2-.2 1.6-.7.9-.9 1-2.4.1-3.3L68.3 65l20.9-20.1c.9-.9 1-2.4.1-3.3-1-.9-2.5-.9-3.4 0"/></svg>