<svg id="Layer_1" xmlns="http://www.w3.org/2000/svg" width="126" height="57" viewBox="0 0 148 66.8"><style>.st0{fill:#FFFFFF;}</style><g id="mobile_connect_logo_1_"><path class="st0" d="M59.2 44.5h-3.3V29.2h3.3v.9c1.4-.9 2.8-1.3 4-1.3 1.8 0 3.1.5 3.9 1.5 1.8-1 3.7-1.5 5.5-1.5 1.8 0 3.1.6 3.9 1.7.8 1.1 1.1 3 1.1 5.7v8.2h-3.3v-8.1c0-1.6-.2-2.8-.5-3.5-.3-.7-1-1-2.1-1-.9 0-1.9.2-3 .6l-.5.2c.2.4.2 1.7.2 3.9v7.9h-3.3v-7.8c0-1.8-.2-3.1-.5-3.7-.3-.7-1-1-2.1-1-1 0-2 .2-2.8.6l-.5.2v11.8zM80.7 30.9c1-1.3 2.8-2 5.2-2s4.2.7 5.2 2 1.6 3.3 1.6 5.9c0 2.6-.5 4.6-1.5 6-1 1.3-2.8 2-5.3 2s-4.3-.7-5.3-2-1.5-3.3-1.5-6c0-2.6.5-4.6 1.6-5.9m2.5 9.9c.5.8 1.4 1.2 2.7 1.2 1.4 0 2.3-.4 2.7-1.2.5-.8.7-2.1.7-4s-.2-3.2-.7-3.9c-.5-.8-1.4-1.2-2.7-1.2-1.3 0-2.2.4-2.7 1.2-.5.8-.7 2.1-.7 3.9s.2 3.2.7 4M101.4 28.9c2.1 0 3.6.6 4.5 1.8.9 1.2 1.4 3.2 1.4 6.2s-.5 5-1.6 6.2c-1.1 1.2-3 1.8-5.8 1.8-1 0-2.5-.1-4.5-.3l-1-.1V22.9h3.3v6.9c1.3-.6 2.6-.9 3.7-.9m-1.5 13c1.6 0 2.7-.4 3.2-1.1.5-.8.8-2.1.8-3.9 0-1.8-.2-3.1-.7-3.9-.5-.7-1.2-1.1-2.2-1.1-1 0-1.9.2-2.9.5l-.5.2v9.3c1.2-.1 1.9 0 2.3 0M109.3 23.2h3.3v3.5h-3.3v-3.5zm0 6h3.3v15.2h-3.3V29.2zM114.6 22.9h3.3v21.6h-3.3zM131.2 41.7l.9-.1.1 2.5c-2.3.5-4.4.7-6.2.7-2.3 0-3.9-.6-4.9-1.9-1-1.2-1.5-3.2-1.5-5.9 0-5.4 2.2-8.1 6.6-8.1 4.3 0 6.4 2.3 6.4 7l-.2 2.4H123c0 1.3.3 2.2.8 2.8.5.6 1.5.9 3 .9 1.4-.1 2.9-.1 4.4-.3m-1.8-6c0-1.5-.2-2.6-.7-3.2-.5-.6-1.3-.9-2.4-.9-1.1 0-2 .3-2.5.9-.5.6-.8 1.7-.8 3.1h6.4zM61.6 50.9c1.1 0 2.3.1 3.8.4l.8.2-.2 2.6c-1.6-.2-2.8-.2-3.6-.2-1.5 0-2.6.3-3.1 1s-.8 2-.8 3.9.3 3.2.8 4c.5.7 1.6 1.1 3.2 1.1l3.6-.2.1 2.7c-2.1.4-3.6.5-4.6.5-2.3 0-3.9-.6-4.9-1.9-.9-1.2-1.4-3.3-1.4-6.1s.5-4.9 1.5-6.1c.9-1.3 2.5-1.9 4.8-1.9M68.5 52.9c1-1.3 2.8-2 5.2-2 2.4 0 4.2.7 5.2 2s1.6 3.3 1.6 5.9-.5 4.6-1.5 6c-1 1.3-2.8 2-5.3 2s-4.3-.7-5.3-2-1.5-3.3-1.5-6 .5-4.6 1.6-5.9m2.5 9.9c.5.8 1.4 1.2 2.7 1.2 1.4 0 2.3-.4 2.7-1.2.5-.8.7-2.1.7-4 0-1.8-.2-3.2-.7-3.9-.5-.8-1.4-1.2-2.7-1.2-1.3 0-2.2.4-2.7 1.2-.5.8-.7 2.1-.7 3.9 0 1.8.2 3.2.7 4M85.7 66.5h-3.3V51.2h3.3v.9c1.5-.9 2.9-1.3 4.2-1.3 2 0 3.4.6 4.2 1.7.7 1.1 1.1 3 1.1 5.7v8.2h-3.3v-8.1c0-1.6-.2-2.8-.5-3.5-.4-.7-1.1-1-2.2-1-1 0-2 .2-3 .6l-.5.2v11.9zM100.4 66.5h-3.3V51.2h3.3v.9c1.5-.9 2.9-1.3 4.2-1.3 2 0 3.4.6 4.2 1.7.7 1.1 1.1 3 1.1 5.7v8.2h-3.3v-8.1c0-1.6-.2-2.8-.5-3.5-.4-.7-1.1-1-2.2-1-1 0-2 .2-3 .6l-.5.2v11.9zM123.1 63.7l.9-.1.1 2.5c-2.3.5-4.4.7-6.2.7-2.3 0-3.9-.6-4.9-1.9-1-1.2-1.5-3.2-1.5-5.9 0-5.4 2.2-8.1 6.6-8.1 4.3 0 6.4 2.3 6.4 7l-.2 2.4h-9.4c0 1.3.3 2.2.8 2.8.5.6 1.5.9 3 .9 1.3-.1 2.8-.2 4.4-.3m-1.9-6c0-1.5-.2-2.6-.7-3.2-.5-.6-1.3-.9-2.4-.9-1.1 0-2 .3-2.5.9-.5.6-.8 1.7-.8 3.1h6.4zM132.3 50.9c1.1 0 2.3.1 3.8.4l.8.2-.1 2.6c-1.6-.2-2.8-.2-3.6-.2-1.5 0-2.6.3-3.1 1s-.8 2-.8 3.9.3 3.2.8 4c.5.7 1.6 1.1 3.2 1.1l3.6-.2.1 2.7c-2.1.4-3.6.5-4.6.5-2.3 0-3.9-.6-4.9-1.9-.9-1.2-1.4-3.3-1.4-6.1s.5-4.9 1.5-6.1c.8-1.3 2.5-1.9 4.7-1.9M147.9 54.1h-4.2v6.7c0 1.2.1 2.1.3 2.5.2.4.6.6 1.4.6l2.5-.1.2 2.7c-1.4.3-2.4.4-3.1.4-1.7 0-2.9-.4-3.5-1.2-.6-.8-1-2.3-1-4.5v-7.1h-2v-2.8h2v-4.4h3.3v4.4h4.2v2.8zM14.5 25.5c-.8-1.7-1.3-3.7-1.3-5.8 0-6.1 4-11.1 8.9-11.1s8.9 5 8.9 11.1c0 2.1-.5 4.1-1.3 5.8h9.2c.5-1.9.8-3.8.8-5.8 0-4.9-1.6-9.6-4.5-13.3C31.7 2.4 27 0 22 0S12.3 2.4 9 6.5c-2.9 3.6-4.5 8.3-4.5 13.3 0 2 .3 3.9.8 5.8h9.2zM22 44.6l3.8-15.4h14.5c2 0 3.7 1.6 3.7 3.7v29.9c0 2-1.6 3.7-3.7 3.7h-5.2v-22l-5 21.9H13.8l-5-21.9v21.9H3.7c-2 0-3.7-1.6-3.7-3.7V32.9c0-2 1.6-3.7 3.7-3.7h14.5L22 44.6z"/></g></svg>