<svg id="Layer_1" xmlns="http://www.w3.org/2000/svg" width="88.6" height="16.3" viewBox="-234 412.7 88.6 16.3"><style>.st0{fill:#FFFFFF;}</style><path class="st0" d="M-209.4 421.2l1.7-3.8h2.9l-3.8 7.3h-1.6l-3.9-7.3h2.9zM-191.3 419.4c1 0 1.7.8 1.7 1.7 0 .9-.6 1.7-1.7 1.7-1 0-1.7-.7-1.7-1.7 0-.9.6-1.7 1.7-1.7zm1.5 5.3h2.6v-11.8h-2.6v5.2c-.5-.7-1.4-.9-2.3-.9-2.2 0-3.6 1.8-3.6 3.9 0 2.1 1.5 3.9 3.7 3.9.9 0 1.8-.3 2.2-1v.7zM-182 419.4c1 0 1.7.8 1.7 1.7 0 .9-.6 1.7-1.7 1.7s-1.7-.7-1.7-1.7c0-.9.6-1.7 1.7-1.7zm4.2-2h-2.6v.7c-.5-.7-1.4-.9-2.3-.9-2.2 0-3.6 1.8-3.6 3.9s1.5 3.9 3.7 3.9c.9 0 1.8-.3 2.2-1v.8h2.6v-7.4zM-173.6 424.7h-2.6v-5.2h-.9v-2.1h.9v-.9c0-1 0-1.8.8-2.6.7-.8 1.6-1.2 2.6-1.2.4 0 .8.1 1.1.2v2.3c-.3-.1-.6-.2-.9-.2-.7 0-.9.4-.9 1.2v1.2h1.8v2.1h-1.8v5.2h-.1zM-159.5 418.4c.6-.9 1.4-1.2 2.4-1.2 1.9 0 2.7 1.2 2.7 3v4.5h-2.6v-3.6c0-.7.1-1.9-1.2-1.9-1 0-1.4.8-1.4 1.7v3.8h-2.5v-7.3h2.6v1zM-150.8 420c.1-.8.8-1.1 1.5-1.1s1.3.5 1.5 1.1h-3zm5.4 1.2c0-2.5-1.5-4.1-4-4.1-2.4 0-4 1.5-4 3.9 0 2.5 1.8 3.9 4.2 3.9 1.7 0 3.3-.8 3.7-2.5h-2.5c-.3.5-.7.7-1.2.7-1.1 0-1.6-.6-1.6-1.6h5.4v-.3zM-196.6 421.2c0 2.3-1.8 4.1-4.1 4.1s-4.1-1.8-4.1-4.1 1.8-4.1 4.1-4.1c2.2 0 4.1 1.9 4.1 4.1zm-6.4 0c0 1.3 1 2.3 2.3 2.3 1.3 0 2.3-1 2.3-2.3 0-1.3-1-2.3-2.3-2.3.3-1.1 1.2-1.6 1.2-1.6-1.7 0-3.2 1.4-3.5 3.2-.1.2 0 .7 0 .7zM-217.8 420.9c0 4.5-3.6 8.1-8.1 8.1s-8.1-3.6-8.1-8.1 3.6-8.1 8.1-8.1 8.1 3.7 8.1 8.1zm-12.6 0c0 2.5 2 4.5 4.5 4.5s4.5-2 4.5-4.5-2-4.5-4.5-4.5c.7-2.2 2.3-3.2 2.3-3.2-3.4 0-6.3 2.8-6.8 6.3-.1.3 0 1.4 0 1.4zM-171.1 420.9c0-2.3 1.8-4.1 4.1-4.1s4.1 1.8 4.1 4.1-1.8 4.1-4.1 4.1-4.1-1.8-4.1-4.1zm6.4.1c0-1.3-1-2.3-2.3-2.3-1.3 0-2.3 1-2.3 2.3 0 1.3 1 2.3 2.3 2.3-.3 1.1-1.2 1.6-1.2 1.6 1.7 0 3.2-1.4 3.5-3.2v-.7z"/></svg>