<svg id="Layer_1" xmlns="http://www.w3.org/2000/svg" width="12.6" height="20.7" viewBox="0 0 12.6 20.7"><style>.st0{fill:#04A7CA;} .st1{fill:#00A5C9;}</style><path class="st0" d="M12.1 20.7H.5c-.3 0-.5-.2-.5-.5V.5C0 .2.2 0 .5 0h11.6c.3 0 .5.2.5.5v19.6c0 .4-.2.6-.5.6zm-.6-19.4H1.2c-.1 0-.2 0-.2.1v15.8c0 .1.1.1.1.1h10.3c.1 0 .1-.1.1-.1V1.4c.1-.1 0-.1 0-.1zm-3.6 18v-.2c0-.2-.2-.4-.4-.4H5.1c-.2 0-.4.2-.4.4v.2c0 .2.2.4.4.4h2.4c.2 0 .4-.2.4-.4z"/><circle class="st1" cx="2.8" cy="9" r=".8"/><circle class="st1" cx="5.2" cy="9" r=".8"/><circle class="st1" cx="7.5" cy="9" r=".8"/><circle class="st1" cx="9.8" cy="9" r=".8"/></svg>