<svg id="Layer_1" xmlns="http://www.w3.org/2000/svg" width="126" height="126" viewBox="0 0 49.9 49.9"><style>.st0{fill:#00A5C9;}</style><path class="st0" d="M25.4 0h-.5C11.4 0 .3 11 0 24.5c-.3 13.7 10.7 25.1 24.5 25.4h.5c13.5 0 24.7-11 24.9-24.5C50.1 11.6 39.1.3 25.4 0m-.5 48.1h-.4c-12.8-.2-23-10.8-22.7-23.6C2 12 12.4 1.8 24.9 1.8h.4c12.8.2 23 10.8 22.8 23.5-.3 12.6-10.6 22.8-23.2 22.8"/><path class="st0" d="M35 18.1L22.7 30 15 22c-.3-.4-.9-.4-1.3 0-.4.3-.4.9 0 1.3l8.3 8.6c.2.2.4.3.6.3.2 0 .5-.1.6-.3l13-12.5c.4-.3.4-.9 0-1.3-.2-.3-.8-.3-1.2 0"/></svg>