<svg id="Layer_1" xmlns="http://www.w3.org/2000/svg" width="126" height="129" viewBox="0 0 206.2 211"><style>.st0{fill:#00A6C9;} .st1{fill:#FFFFFF;}</style><path class="st0" d="M168.8 182h-5c0-33.5-27.2-60.7-60.7-60.7S42.4 148.5 42.4 182h-5c0-36.2 29.5-65.7 65.7-65.7s65.7 29.4 65.7 65.7zM103.1 110.1C85.4 110.1 71 95.7 71 77.9c0-17.7 14.4-32.2 32.2-32.2s32.2 14.4 32.2 32.2c-.1 17.8-14.6 32.2-32.3 32.2zm0-59.3C88.1 50.8 76 63 76 77.9s12.2 27.2 27.2 27.2 27.2-12.2 27.2-27.2-12.3-27.1-27.3-27.1z"/><path class="st0" d="M103.1 206.1C46.3 206.1 0 159.8 0 103S46.3-.1 103.1-.1C160-.1 206.2 46.1 206.2 103S160 206.1 103.1 206.1zm0-201.2C49 4.9 5 48.9 5 103s44 98.1 98.1 98.1c54.1 0 98.1-44 98.1-98.1s-44-98.1-98.1-98.1z"/><circle class="st1" cx="165.6" cy="178.4" r="30"/><path class="st0" d="M165.6 211c-17.9 0-32.5-14.6-32.5-32.5s14.6-32.5 32.5-32.5 32.5 14.6 32.5 32.5-14.6 32.5-32.5 32.5zm0-60.1c-15.2 0-27.5 12.4-27.5 27.5s12.4 27.5 27.5 27.5 27.5-12.4 27.5-27.5-12.3-27.5-27.5-27.5z"/><path class="st0" d="M163.1 189.8c-.6 0-1.3-.2-1.8-.7L148 175.8c-1-1-1-2.6 0-3.5s2.6-1 3.5 0l11.5 11.5 16.6-16c1-1 2.6-.9 3.5.1s.9 2.6-.1 3.5l-18.4 17.7c-.3.4-.9.7-1.5.7z"/></svg>